<svg width="708.66144" height="708.66144" xmlns="http://www.w3.org/2000/svg">
 <defs>
  <linearGradient id="svg_15" x1="0.19026" x2="0.32502" y1="0.17918" y2="0.71188">
   <stop stop-color="#eff3f8" offset="0"/>
   <stop stop-color="#eff3f8" stop-opacity="0" offset="1"/>
  </linearGradient>
  <linearGradient id="svg_14" x1="0.34869" x2="0.63215" y1="0.17043" y2="0.7546">
   <stop stop-color="#fff" offset="0"/>
   <stop stop-color="#fff" stop-opacity="0" offset="1"/>
  </linearGradient>
  <linearGradient id="svg_13" x1="0.76334" x2="0.49882" y1="1.3263" y2="0.47088">
   <stop stop-color="#2e3436" offset="0"/>
   <stop stop-color="#2e3436" stop-opacity="0" offset="1"/>
  </linearGradient>
 </defs>
 <g>
  <title>background</title>
  <rect x="-1" y="-1" width="710.66144" height="710.66144" id="canvas_background" fill="none"/>
 </g>
 <g>
  <title>Layer 1</title>
  <g id="svg_1">
   <g id="svg_23">
    <g stroke-width="8" id="svg_17" transform="matrix(2.26595, 0, 0, 2.93073, -433.364, -688.553)">
     <path d="m469.461273,359.620056c0,64.753998 -52.493011,117.25 -117.25,117.25c-64.754028,0 -117.250046,-52.492981 -117.250046,-117.25c0,-64.753998 52.492996,-117.249939 117.250046,-117.249939c64.753967,0 117.25,52.49295 117.25,117.249939z" fill="#347dd1" id="svg_18"/>
     <path d="m326.817261,470.310059c24.290009,6.164978 50.626984,3.912994 74.748993,-8.281006c24.122009,-12.192993 41.552002,-32.065002 50.98999,-55.279999l-125.73999,63.561005l0.001007,0z" fill="url(#svg_13)" opacity="0.35" id="svg_19"/>
    </g>
    <path d="m322.563019,69.491745c-1.273621,-0.419373 -2.583099,-0.819778 -3.93335,-1.184593c-0.33902,-0.188438 -1.042511,-0.010818 -2.172607,0.56916c-0.969635,0.497627 -1.621552,0.987907 -1.928741,1.508148c-0.195343,0.583824 -0.492188,1.932495 -0.899445,3.955002c-0.295319,2.086075 -0.378174,3.509872 -0.234131,4.282104c-4.366669,-2.957375 -8.575867,-5.436798 -12.621307,-7.35054c-4.046021,-1.912956 -8.062622,-3.296806 -12.012878,-4.291794c-3.215424,-0.939613 -6.524994,-1.529549 -9.971313,-1.776321c-8.755432,4.27475 -17.32077,9.072655 -25.634735,14.570992c1.203659,0.553284 2.320099,1.08963 3.257294,1.612518c1.289154,0.547409 2.251221,0.953651 2.815735,1.268379l-1.167206,3.481735l-7.820938,-4.345383c-1.819077,1.241997 -3.620178,2.500771 -5.414719,3.800278c0.318771,1.082932 0.740677,2.039787 1.228867,2.895874c1.012436,1.77787 2.208389,3.368263 3.642014,4.687698c1.481415,1.174049 3.070557,2.237267 4.763351,3.182152c1.740311,0.799484 3.399521,1.616928 4.979111,2.498436c1.578979,0.882446 2.908051,2.101082 4.018585,3.586098c1.271332,1.403206 2.150452,3.233047 2.581696,5.550453c0.591827,2.235237 0.679077,5.046951 0.220642,8.425552c-0.297699,3.296455 -1.301483,7.356117 -2.908508,12.170441c0.902069,0.504395 1.800659,0.567368 2.608704,0.152328c0.920013,-0.351044 1.652618,-0.393784 2.217041,-0.079117c-0.0979,0.292252 -0.08725,0.985336 0.072235,2.112106c0.158508,1.128143 0.071442,1.739182 -0.251099,1.904739c-0.161987,0.083237 -0.463043,0.149796 -0.962524,0.043152c-0.387451,-0.042786 -0.836304,-0.170364 -1.335693,-0.277039c-0.500427,-0.105713 -0.973053,-0.217987 -1.472656,-0.324615c-0.500305,-0.10585 -0.869751,-0.063324 -1.030762,0.019302c-0.226227,-0.125778 -0.450348,0.045151 -0.644867,0.628616c-0.048981,0.146179 -0.118988,0.391891 -0.216034,0.683472c0.015045,0.355148 0.117676,0.587006 0.230927,0.64975l5.222107,9.413666l-0.011017,0.755325c-0.39035,1.167587 -1.112,1.903671 -2.144836,2.191635c-0.985046,0.143051 -2.121155,0.489761 -3.364166,1.006393c-1.19516,0.371857 -2.377991,1.026321 -3.654358,2.043839c-1.228455,0.872482 -2.28006,2.47905 -3.059036,4.812851c-0.097931,0.292236 -0.230911,0.664429 -0.376633,1.1017c-0.033707,0.501236 -0.018097,0.874878 -0.066406,1.020538c-0.0979,0.292099 -0.178329,0.783981 -0.195847,1.63916c0.143311,0.773056 0.25676,1.69809 0.303329,2.762131c0.1586,1.127869 0.197159,2.148483 0.179657,3.003723c0.094254,0.918777 0.144363,1.500885 0.096054,1.646484c-0.033768,0.500824 -0.241943,1.515472 -0.664597,3.18306c-0.423523,1.668198 -0.916779,3.515396 -1.436783,5.474655c-0.472321,1.814072 -0.965576,3.660995 -1.436798,5.474472c-0.42363,1.668198 -0.63208,2.682617 -0.664948,3.183182c-0.295242,2.085754 -0.235458,4.023239 0.277802,5.694138c0.67366,1.588425 1.513443,3.060196 2.510941,4.482285c1.109879,1.485764 2.283386,2.898987 3.442566,4.238281c1.319763,1.25705 2.308655,2.652908 3.032104,4.095184c-0.000214,0.000336 0.035492,0.015793 0.100037,0.224411c0.22525,0.126495 0.396759,0.305466 0.509979,0.368149c1.691559,0.945236 3.601593,0.174988 5.752838,-2.259323c2.263306,-2.370346 4.516052,-5.189529 6.685455,-8.47908c2.330048,-3.372269 4.486389,-6.542343 6.509583,-9.394211c2.0224,-2.851395 3.83429,-4.173096 5.38327,-4.001053c3.483704,0.388138 6.976196,0.800339 10.460846,1.188141c3.596497,0.451431 7.158691,0.617828 10.676758,0.504608c3.678619,-0.195206 7.242371,-0.767776 10.77832,-1.736511c3.696381,-1.050919 7.296844,-2.739532 10.723175,-4.981598l-8.899353,-9.370377c0.614807,-1.040955 1.301086,-1.322952 2.091309,-0.882095c0.83783,0.295303 1.609985,0.610901 2.287323,0.988739c1.917114,1.071457 3.310638,2.63295 4.226135,4.701874c1.02652,2.132614 2.494781,3.791138 4.411743,4.861969l0.666199,0.327347c0.271912,-0.019653 0.686615,-0.099777 1.1716,-0.348984c0.645782,-0.331238 0.992401,-0.628143 1.042206,-0.774292c0.097473,-0.291672 0.018219,-1.008514 -0.140381,-2.136185c0.002228,-1.210114 -0.024963,-2.007278 -0.154205,-2.425461l3.220093,1.789063c1.024109,-3.06369 1.286957,-5.829056 0.792999,-8.356277c4.418518,0.39151 7.543365,-2.299515 9.442322,-7.98999l0.5755,-1.696655c0.047638,-0.14566 0.090546,-0.718842 0.108765,-1.574692c0.12912,-0.792084 0.262787,-1.634201 0.330719,-2.63591c0.179047,-0.93811 0.256042,-1.772522 0.224304,-2.482559c0.131531,-0.792221 0.235687,-1.299576 0.333099,-1.59166c0.097504,-0.291275 0.351288,-0.597092 0.836121,-0.845901c0.598358,-0.18544 1.035675,-0.281021 1.309784,-0.301285c0.27417,-0.019516 0.815735,0.11673 1.540894,0.348572c0.838348,0.295303 1.617859,0.491745 2.342987,0.723495c0.886078,0.149796 1.70401,0.427322 2.429077,0.659149c0.725159,0.232437 1.210083,0.375977 1.436584,0.501724c0.047699,-0.145538 0.043152,-0.295944 0.092957,-0.442291c0.208435,-0.228195 0.371643,-0.465378 0.421387,-0.611938c0.289978,-0.87468 0.161041,-1.904114 -0.385132,-3.075211c-0.435089,-1.106888 -1.033234,-2.175461 -1.740265,-3.263611c-0.593628,-1.023987 -1.176025,-1.911514 -1.867035,-2.644714c-0.643616,-0.878357 -1.06958,-1.298584 -1.182983,-1.361832c3.115692,-0.510269 5.347748,-1.562012 6.659698,-3.081497c1.470581,-1.601257 2.814331,-2.962051 4.02887,-4.189377c1.323273,-1.163429 2.875427,-1.860428 4.683655,-2.063019c1.969086,-0.284767 4.926239,0.611145 8.873535,2.815659l1.205536,-3.658722c0.047485,-0.145287 -0.11792,-0.643677 -0.648132,-1.459839c-0.371643,-0.898247 -1.024231,-1.959778 -1.844543,-3.110954c-0.709076,-1.086983 -1.490875,-2.096062 -2.361115,-3.101288c-0.706909,-1.08699 -1.357239,-1.998459 -1.93512,-2.668785c0,0.000343 -0.219696,-0.148033 -0.783905,-0.463249c-0.403412,-0.397514 -0.777191,-0.697845 -1.001587,-0.824165c-1.805969,-1.00798 -3.639099,-1.541824 -5.574249,-1.757881c-1.774261,-0.298027 -3.577881,-0.96685 -5.381622,-1.975342l-0.645782,-0.41555c1.112488,-0.934525 2.127777,-1.424873 3.113342,-1.567886c1.146606,-0.225136 2.236511,-0.341461 3.285645,-0.275574c1.209961,-0.016037 2.299957,-0.132126 3.283295,-0.275078c1.096802,-0.079254 2.204895,-0.56105 3.321899,-1.496429l-1.606506,-5.30468c0.047607,-0.145592 -0.367096,-0.534828 -1.219086,-1.185066c-0.806702,-0.795486 -1.812805,-1.633484 -3.0047,-2.472794c-1.144226,-0.98452 -2.365692,-1.897369 -3.670837,-2.799728c-1.191925,-0.838707 -2.188904,-1.453049 -2.977325,-1.894394l-1.821899,-1.110733c-1.241821,-0.692802 -2.698761,-1.465584 -4.278198,-2.348434c-1.418396,-0.964447 -2.823273,-1.817612 -4.289307,-2.636978l-3.936035,-2.228882c-4.851379,-2.708855 -9.360657,-5.121704 -13.58432,-7.307541c-3.129333,-1.748108 -6.607605,-3.239563 -10.428711,-4.497742l0.000671,0.000618zm24.399811,25.410828c0.466858,0.153023 0.906403,0.418549 1.330261,0.654465l5.401886,2.931023l1.380035,0.766945c0.564209,0.315445 1.157776,0.764397 1.785461,1.287788c0.788635,0.44136 1.461609,0.867775 2.028076,1.182564l1.192017,0.606644c-1.373291,1.310028 -2.372528,2.097023 -2.970734,2.282364c-0.43515,0.103348 -1.196472,-0.181602 -2.322662,-0.812004l-1.70401,-0.974792c-0.339844,-0.1884 -1.049164,-0.630722 -2.127594,-1.407005c-1.078735,-0.775421 -2.259308,-1.599869 -3.451172,-2.43927c-1.144226,-0.984367 -2.247711,-1.904015 -3.326294,-2.680405c-0.967621,-0.712524 -1.602203,-1.249893 -2.003235,-1.648521c1.801514,-0.290443 3.385345,-0.208466 4.787964,0.250206l0,0zm99.769806,61.04126c-0.63446,1.897003 -0.650269,4.006882 -0.056549,6.241531c0.752167,2.152267 1.833038,4.296082 3.136108,6.408295c1.350464,1.966812 2.77124,3.663544 4.268982,5.191788c1.611176,1.591934 2.923096,2.706345 3.938324,3.273132c0.450806,0.252304 1.418396,0.731491 2.934265,1.404709c1.513763,0.67334 3.054504,1.154449 4.665588,1.535324c1.774292,0.299011 3.405853,0.319214 4.826447,0.073288c1.531952,-0.182007 2.513031,-0.880707 2.952698,-2.193893c0.047485,-0.145737 0.036041,-0.369034 -0.027222,-0.578262c0.097473,-0.291611 0.160797,-0.417953 0.160797,-0.418228c-3.571136,-4.937088 -7.819794,-8.983826 -12.634949,-12.194214c-4.819672,-3.209717 -9.539581,-6.159775 -14.16449,-8.743195l0,-0.000275zm-20.275696,-5.471161c-0.919861,-0.253403 -1.835358,-0.166351 -2.719116,0.378036c-1.130798,0.580658 -1.916962,1.712524 -2.45401,3.317169l-0.697876,1.937973c0.063416,0.20929 0.194885,0.768784 0.339874,1.541229c0.303558,0.689972 0.527863,1.458359 0.736359,2.439682c0.369385,0.898788 0.73642,1.788239 0.992493,2.62355c0.303833,0.689835 0.446503,1.203308 0.512207,1.411987c0.013458,0.355225 -0.169952,0.884567 -0.575623,1.696579c-0.355774,0.667038 -0.702423,1.433426 -0.99472,2.308578c-0.487213,1.459473 -0.317322,2.847198 0.455475,4.143478c1.855774,-0.347946 3.371674,-0.590546 4.6315,-0.75354c1.257599,-0.162155 2.565216,0.139755 3.920197,0.895294c0.224304,0.126419 0.523346,0.329742 0.815674,0.66449c0.337708,0.189026 0.528046,0.27951 0.528046,0.279312c-1.939636,0.995255 -3.548584,1.891373 -4.729126,2.617432c-1.178162,0.726471 -2.079956,2.14209 -2.809753,4.330154c-0.392059,1.167664 -0.423737,2.433914 -0.038483,3.687042c0.498474,1.316833 1.130707,2.593735 1.903351,3.889938c0.818085,1.15097 1.699402,2.241882 2.682922,3.309143c1.028717,0.922302 1.926147,1.647324 2.716797,2.087891c1.015198,0.567413 2.001038,0.488861 2.907257,-0.218018c0.904175,-0.70578 1.683655,-1.718307 2.397461,-3.051544c0.824799,-1.269897 1.552185,-2.594635 2.152618,-3.991013c0.600433,-1.395569 1.178345,-2.452454 1.697266,-3.20195c0.110901,0.063156 0.226532,0.056625 0.342041,0.119354c0.161011,-0.082657 0.333069,-0.096069 0.446472,-0.033737c1.126129,0.630402 1.880737,1.504395 2.315765,2.611588c0.43042,1.10788 0.774933,2.404709 1.112518,3.804199c0.382935,1.253662 0.917816,2.448669 1.577209,3.682022c0.659485,1.233887 1.792358,2.288315 3.371704,3.170471l2.333893,-6.963409c0.049805,-0.145645 -0.117798,-0.720901 -0.437286,-1.766037c-0.271973,-1.19014 -0.627686,-2.518143 -1.076355,-3.980515c-0.335327,-1.399124 -0.788544,-2.809128 -1.398102,-4.188477c-0.448669,-1.462219 -0.874664,-2.544464 -1.291504,-3.297455c-0.065765,-0.208664 -0.380737,-0.708603 -0.958618,-1.378586c-0.532471,-0.815659 -1.182709,-1.534225 -1.874023,-2.267487c-0.643311,-0.878403 -1.282257,-1.758713 -1.973572,-2.491974c-0.530182,-0.815384 -0.881409,-1.330917 -1.058044,-1.60321c-0.466888,-0.606369 -0.933594,-1.308029 -1.463806,-2.1241c-0.532623,-0.815445 -0.784149,-1.249084 -0.736542,-1.395432c-0.222107,-1.33606 -0.249298,-2.402847 -0.004578,-3.132553c0.403442,-0.812225 0.66394,-1.43692 0.697998,-1.938156c0.194916,-0.583221 -0.045288,-1.255753 -0.625427,-1.925812c-0.466827,-0.606293 -1.676758,-1.4888 -3.704773,-2.623199l-1.92157,5.684998c-0.904236,-0.503372 -1.622437,-1.169113 -2.152649,-1.985245c-0.369385,-0.898392 -0.783936,-1.75705 -1.266724,-2.718918c-0.319397,-1.044388 -0.808929,-2.000214 -1.452576,-2.879425c-0.482513,-0.961319 -1.218964,-1.730804 -2.234009,-2.298279c-0.310516,-0.173141 -0.632294,-0.338181 -0.938232,-0.422836l0,-0.000687zm103.488251,57.975739c-0.595886,-0.116882 -1.203186,-0.140182 -1.887451,-0.0905c-1.373108,0.099564 -2.343018,1.021912 -2.925293,2.77243l-0.340027,0.924988c0.126953,0.417816 0.292419,0.993134 0.437439,1.76564c0.190186,0.626968 0.335327,0.948135 0.448669,1.010513l8.379456,0.271179c-0.002258,0.000488 0.004578,-0.119064 0.054382,-0.265274c0.210693,-0.228409 0.353516,-0.377213 0.403381,-0.523163c0.484741,-1.458847 0.337585,-2.59227 -0.466858,-3.388229c-0.693481,-0.732635 -1.493286,-1.375916 -2.395142,-1.880295c-0.507568,-0.283356 -1.11261,-0.480072 -1.708557,-0.597107l0,-0.000183zm-305.789642,-106.077728c-4.159424,3.739609 -8.280716,7.589691 -12.262619,11.653534c0.888,1.226471 1.669083,2.543022 2.261658,3.921005c1.091858,2.341286 1.21521,4.621971 0.484833,6.810104c-0.828613,2.480835 -2.087616,3.969543 -3.879333,4.526459c-1.743851,0.411545 -3.623169,0.577271 -5.607285,0.507706c-1.984711,-0.069504 -3.875854,0.065552 -5.570129,0.330536c-1.646454,0.119797 -2.783966,1.205673 -3.465485,3.247833l-0.253159,0.860153c0.027893,1.920197 0.809601,3.591263 2.468719,5.036774c1.707062,1.300018 3.272537,2.378601 4.626694,3.134399c1.127457,0.630417 1.738647,0.990936 1.803253,1.199142c0.240677,0.481293 0.820007,1.638443 1.720245,3.352264c1.012466,1.77774 1.921082,3.665817 2.836563,5.734528c1.027557,2.132416 1.997787,4.16362 2.849335,6.023514c0.899643,1.714737 1.497604,2.783371 1.738907,3.263657c0.127853,0.418243 0.403748,1.029282 0.93515,1.844589c0.643158,0.878998 1.086578,1.403259 1.263809,1.674942c0.112289,0.063416 0.227203,0.249207 0.404633,0.520889c0.338196,0.189148 0.527908,0.279846 0.528397,0.27951c0.82785,-2.480286 1.856949,-4.341095 3.070114,-5.568176c1.261093,-1.372406 2.278488,-3.264206 3.106979,-5.745041c0.584091,-1.750519 0.817413,-3.442169 0.692154,-5.070709c-0.013138,-1.565018 0.3125,-3.247864 0.897614,-4.999344l0.253098,-0.860107l5.8647,7.741272c0.468826,-0.603134 1.127243,-1.212738 1.98407,-1.773346c0.904602,-0.70639 1.799133,-1.45575 2.591736,-2.225296c0.904709,-0.706192 1.631836,-1.368637 2.263062,-2.055328c0.678925,-0.832138 1.112991,-1.740341 1.292862,-2.679123c0.017517,-0.855164 -0.429962,-2.191406 -1.280609,-4.052505c-0.851563,-1.859909 -1.816879,-3.740768 -2.941696,-5.58165c-0.964584,-1.922852 -1.895187,-3.595306 -2.779129,-4.955261c-0.885086,-1.358971 -1.277344,-1.963516 -1.276917,-1.963882c0.096985,-0.291542 0.167023,-0.537109 0.215973,-0.683395c0.209824,-0.2285 0.297058,-0.370178 0.297424,-0.370415c0.209976,-0.228661 0.608521,-0.682632 1.239594,-1.369591c0.791885,-0.768936 1.265594,-1.318512 1.363434,-1.610634c0.876221,-2.626091 0.960724,-4.788803 0.335587,-6.523544c-0.4646,-1.816765 -1.22908,-3.383789 -2.387482,-4.723709c-1.15921,-1.339394 -2.408035,-2.579987 -3.776642,-3.691261c-1.369492,-1.110489 -2.515121,-2.19635 -3.334976,-3.347168c-0.064667,-0.208771 -0.219116,-0.75296 -0.475174,-1.589058c-0.024261,-0.079147 -0.075256,-0.145348 -0.099747,-0.224464l-0.000214,0.000198zm111.115112,54.476334c0.206116,0.060684 0.439453,0.201385 0.666016,0.327408c0.111145,0.063339 0.222107,0.176239 0.285614,0.384567c0.113251,0.063217 0.210632,0.14505 0.324005,0.207779c-0.985596,0.142914 -1.907898,0.564941 -2.698792,1.333725c-0.792999,0.769623 -1.429779,1.633652 -1.996246,2.528671c0.047668,-0.145676 0.027283,-0.40004 0.011383,-0.755264c0.144958,-0.437271 0.278717,-0.809402 0.376099,-1.1017c0.389679,-1.166687 0.897308,-1.977951 1.479645,-2.518631c0.437378,-0.405319 0.935883,-0.588913 1.552277,-0.406555l0,0zm263.167511,93.841934c-0.462341,-0.215607 -0.953979,-0.306931 -1.452454,-0.413147c-0.840759,-0.294891 -1.654175,-0.229919 -2.460876,0.18428c-0.695679,0.478012 -1.289307,1.430725 -1.776428,2.889389c-0.097473,0.292007 -0.294556,0.79071 -0.537109,1.519867c-0.083862,0.64682 -0.131409,1.14711 -0.226563,1.438431c0.514343,0.461334 1.429871,1.098053 2.734985,1.999664c1.305176,0.902039 2.624023,1.897339 3.992615,3.00769c1.529541,1.028107 2.929871,2.000854 4.234985,2.902679c0.353638,0.24411 0.484985,0.262299 0.784119,0.463287c-1.141968,-4.383453 -2.460938,-8.667053 -3.743286,-12.976959c-0.088501,-0.048645 -0.170044,-0.135071 -0.256104,-0.183731c-0.428406,-0.324905 -0.829346,-0.615967 -1.293884,-0.831451l0,0zm-263.688782,-87.476364c0.788605,0.441391 0.915466,1.320587 0.478149,2.633224c-0.392059,1.167587 -0.978882,1.531342 -1.769714,1.090027c-0.788544,-0.440781 -0.990204,-1.224426 -0.600494,-2.391876c0.439575,-1.312897 1.101227,-1.771881 1.892059,-1.331375l0,0zm203.335144,80.718063c-6.229065,-2.310837 -12.027649,-2.628571 -17.402527,-0.957458c-7.121826,2.082596 -14.20755,6.932327 -21.306763,14.565445l-0.253693,0.859833c-0.292419,0.876129 -0.317261,2.022827 0.020416,3.422241c0.496094,1.316406 1.121613,2.712646 1.844391,4.155212c0.722748,1.442566 1.527344,2.705597 2.349762,3.855957c0.981293,1.068268 1.796997,1.815643 2.474548,2.193481l0.64801,0.415497c0.385193,0.043335 1.015015,0.038055 1.837708,-0.021637c0.983429,-0.142456 1.538452,-0.244812 1.651855,-0.182098c0,0.000275 -0.011292,-0.030853 0.036316,-0.176727c0.210663,-0.228577 0.360321,-0.496704 0.457642,-0.788727c0.342194,-1.020966 0.471405,-2.205505 0.36026,-3.479248c-0.111084,-1.273132 -0.292206,-2.614838 -0.627655,-4.014252c-0.224304,-1.33606 -0.401031,-2.604584 -0.509918,-3.878235c-0.063324,-1.419067 0.117981,-2.761108 0.557495,-4.074234l0.899597,-2.910553c1.209991,-0.016418 3.539581,-0.054474 6.945221,-0.230667c3.516663,-0.112549 7.119568,-0.326691 10.847168,-0.668396c3.774963,-0.487427 7.230591,-1.095581 10.280457,-1.815399c3.099792,-0.865387 4.86499,-1.956635 5.304688,-3.269745c-2.170837,-1.213074 -4.337097,-2.22998 -6.414978,-3.00029l0,0zm60.829529,38.5186c-2.098328,-0.782257 -4.355225,-1.122162 -6.906677,-0.990509c-3.294678,0.239105 -6.603027,0.698853 -9.879517,1.292084c-3.276611,0.593781 -6.378662,1.055725 -9.331177,1.48291c-2.954773,0.428253 -5.272888,0.220215 -6.963318,-0.725037l-0.697876,1.938049c-0.439575,1.313293 -0.65033,2.52005 -0.602661,3.58429c0.206116,0.981934 0.797424,2.169678 1.683594,3.529083l-0.716064,-0.439453c-1.12854,-0.629883 -2.078003,-1.47467 -2.898315,-2.625641c-0.772583,-1.296265 -1.789917,-2.357758 -3.02948,-3.050903c-0.790833,-0.440857 -1.425293,-0.316132 -1.894348,0.286865c-0.308167,0.520905 -0.598145,1.088013 -0.953857,1.754089c-0.355835,0.666748 -0.720642,1.328979 -1.076355,1.995544c-0.308228,0.520813 -0.838501,0.607788 -1.513672,0.229828c-0.115479,-0.062866 -0.235657,-0.129608 -0.4599,-0.255585c-0.179077,-0.271759 -0.281189,-0.504059 -0.231262,-0.649994c-0.065735,-0.208832 -0.029419,-0.662781 0.052185,-1.30957c0.081543,-0.646454 0.167542,-1.257446 0.251465,-1.904419c0.12915,-0.792511 0.149414,-1.427521 0.183472,-1.928253c0.079407,-0.646515 0.108765,-0.981354 -0.002258,-1.044556l-0.473572,-0.544525c-0.904114,-0.50412 -1.635986,-0.461304 -2.216003,0.079041c-0.584595,0.540802 -1.388977,0.486603 -2.404175,-0.080811c-0.790955,-0.440857 -1.321167,-1.015808 -1.624756,-1.705994c-0.305847,-0.689453 -0.586914,-1.450684 -0.842957,-2.286591c-0.256042,-0.83548 -0.561951,-1.58139 -0.978943,-2.33429c-0.305847,-0.689636 -0.903992,-1.288666 -1.692627,-1.730042c-1.579468,-0.881561 -2.929871,-0.802734 -4.092163,0.278046c-1.003967,0.99823 -2.050842,2.285461 -3.197388,3.721222c-1.148865,1.436096 -2.349731,2.648315 -3.627747,3.666351c-1.114807,0.935272 -2.549255,0.886292 -4.242004,-0.059235l-14.721802,-8.179291c-0.389771,1.167511 -0.385193,2.449707 0.063477,3.911652c0.561951,1.525696 1.055908,2.631714 1.361816,3.321014c-0.566467,-0.314758 -1.620117,-0.729431 -3.022766,-1.339905c-1.402618,-0.609802 -2.934479,-1.210327 -4.611267,-1.800842c-1.5159,-0.672913 -2.954681,-1.264984 -4.404968,-1.729187c-1.404846,-0.610168 -2.447266,-0.994171 -3.059052,-1.16333c-2.612671,-0.593384 -5.304535,-0.362457 -8.066742,0.692108c-2.598969,0.971771 -5.188995,1.434937 -7.833374,1.341705c1.130737,-1.790466 1.658661,-3.429382 1.597412,-4.848572c0.099731,-1.502014 -0.163116,-2.821228 -0.870117,-3.909058c-0.659424,-1.233337 -1.590637,-2.243744 -2.66925,-3.020142c-1.030945,-0.921417 -2.046112,-1.640045 -3.05899,-2.207428c-1.561279,4.66922 -3.331055,7.900848 -5.397614,9.688141c-2.021149,1.641754 -4.06958,2.63385 -6.038635,2.91864c-1.808319,0.202515 -3.426178,0.213348 -4.862762,0.103485c-1.38681,-0.255035 -2.25238,0.159821 -2.592224,1.181122l-1.044586,3.240448c-2.934357,-1.638 -4.681519,-3.395874 -5.145996,-5.213226c-0.416931,-1.962921 0.154053,-5.114075 1.615692,-9.491394l12.863678,7.245392c0.788544,0.441254 1.336975,0.188812 1.742523,-0.624023c0.40564,-0.812164 0.75235,-1.578735 0.997101,-2.308563c0.339905,-1.020966 0.514282,-1.773834 0.548279,-2.274719c0.081543,-0.646545 -0.19931,-1.407593 -0.842926,-2.28653l-15.795898,-24.112686c-0.76593,-3.716995 -1.908051,-6.396545 -3.405792,-7.925476c-1.38446,-1.465454 -3.315002,-2.820892 -5.796204,-4.207169c-3.609711,-2.016022 -7.591003,-2.9142 -11.866821,-2.533279c-4.162689,0.444336 -8.386414,1.626572 -12.761841,3.509842c-4.2146,1.800613 -8.284302,4.189789 -12.177185,7.034714c-3.847778,2.699493 -7.198975,5.41098 -9.997467,8.176346c-0.593628,-1.024536 -1.873993,-1.191284 -3.874695,-0.405594c-1.955597,0.640305 -4.089966,1.774017 -6.335541,3.289139c-2.084839,1.432541 -4.058441,3.068787 -6.013947,4.918655c-1.844391,1.913437 -2.918518,3.342758 -3.258392,4.363785c-1.706299,5.106934 -2.52652,9.846191 -2.390717,14.249237c0.183655,4.257813 2.188995,7.924103 6.007172,10.921722c-2.114166,0.723022 -3.761597,2.150604 -4.989563,4.232788c-1.232849,2.082581 -1.989685,4.481476 -2.254761,7.276398c-3.582489,-0.096222 -6.281097,0.254425 -8.121063,0.957184c-1.79248,0.557343 -3.482727,1.283356 -5.032776,2.321228c-1.388947,0.955048 -3.070435,2.097229 -4.944305,3.300751c-1.713043,1.121063 -4.192047,2.166473 -7.502563,3.260742c-1.404877,0.60025 -2.91626,0.916443 -4.511505,0.889526c-1.599823,-0.026459 -3.16098,-0.022522 -4.758423,-0.049194c-1.597534,-0.026459 -3.199615,0.08844 -4.781219,0.416382c-1.420807,0.245575 -2.787109,0.882782 -4.065155,1.900665c-0.018036,0.855652 0.256104,1.736481 0.788635,2.551727c0.641327,0.878937 1.298309,1.670807 1.99173,2.403412c0.691071,0.733002 1.336975,1.301636 1.9646,1.825348c0.627533,0.522858 1.098969,0.906677 1.325592,1.032776c-0.582397,0.539154 -0.849701,1.28363 -0.754547,2.203918c0.208405,0.981812 0.455322,2.004639 0.727325,3.194489c0.432739,1.107727 0.759155,2.300659 1.031097,3.49054c0.319397,1.043396 0.353333,1.99292 0.061096,2.866211c-0.779541,2.335785 -2.152679,3.560883 -4.07428,3.701538c-1.871613,-0.00885 -3.922272,-0.489563 -6.163269,-1.395081c-2.077972,-0.987732 -4.123413,-2.060333 -6.153168,-3.194458c-1.982544,-1.280762 -3.532227,-1.984222 -4.693024,-2.113037c-0.308258,0.518616 -0.822876,1.450684 -1.535004,2.784119c-0.600494,1.395081 -1.311554,2.825134 -2.072418,4.302338c-0.600433,1.397888 -1.162689,2.828156 -1.762238,4.223175c-0.551788,1.251495 -0.961945,2.142395 -1.156311,2.728546l-0.27124,0.946625c-1.65683,4.96167 -2.077362,8.584106 -1.259155,10.946289c0.817474,2.359161 2.526764,4.229034 5.121918,5.676758l5.77597,3.253143c0.337769,0.187561 1.132507,0.682831 2.486603,1.435944c1.401886,0.612701 2.270874,1.00827 2.610809,1.1987c2.454132,-0.533295 4.484222,-1.629517 5.954834,-3.232605c1.63382,-1.685089 3.043304,-3.440613 4.339355,-5.316254c1.293854,-1.872742 2.519684,-3.763123 3.652832,-5.553833c1.293701,-1.872681 2.836945,-3.26178 4.613464,-4.173309c1.824005,-1.057922 4.033295,-1.433136 6.630035,-1.19574c2.596802,0.240417 5.932343,1.509277 9.992981,3.77774l0.666199,0.328278c-0.324158,0.164185 -0.872437,0.887909 -1.697327,2.157013c-0.826935,1.269012 -1.434265,2.192139 -1.740143,2.710907l-0.253876,0.861542l-0.339874,0.926208c-0.131378,0.79126 -0.339813,1.805267 -0.663879,3.18277c-0.165527,1.29248 -0.382965,2.620117 -0.657166,3.848053c-0.165375,1.29538 -0.301392,2.406067 -0.480408,3.343872c-0.178864,0.937897 -0.283112,1.444916 -0.33075,1.591492c0.013458,0.354675 0.002228,0.794189 0.083832,1.356873c0.190247,0.627167 0.419159,1.075562 0.598267,1.348206c1.386597,0.254913 2.51059,-0.123138 3.401093,-1.184052c1.001495,-0.996399 1.735779,-2.250824 2.270538,-3.853882c0.697784,-1.688141 1.219116,-3.399628 1.481964,-4.985168c0.373749,-1.521118 0.582275,-2.535065 0.666199,-3.18277c0.221924,1.336395 0.790649,2.740265 1.740173,4.308167c1.060425,1.632324 2.082367,3.311676 2.984253,5.026245c1.060364,1.632294 1.898987,3.296967 2.574127,4.885437c0.672882,1.588409 0.786285,2.98053 0.348907,4.296478c-0.487152,1.456512 -1.404846,2.030914 -2.791595,1.776031c-1.27356,-0.193512 -2.340729,-0.093903 -3.147522,0.322296c0,0 -0.088287,0.140717 -0.296753,0.369324c-0.049805,0.146484 -0.113312,0.272583 -0.160889,0.419037c-0.049866,0.146515 -0.120026,0.39267 -0.217468,0.682831c0.015869,0.354675 0.027222,0.577393 0.027222,0.577393c0.126831,0.419189 0.627594,1.406769 1.413818,3.056824c0.836121,1.506409 1.3302,2.535065 1.572571,3.015686c0.516693,-0.750244 1.481903,-1.743713 2.807587,-2.907257c1.373138,-1.309967 2.769073,-2.359283 4.273529,-3.253143c1.663239,-0.973114 3.133759,-1.647156 4.441376,-1.957733c1.468231,-0.38974 2.483398,-0.140686 3.01358,0.674133c0.530273,0.814667 0.879242,2.072052 0.958649,3.845062c0.124512,1.629486 0.070099,3.37912 -0.127045,5.172729c-0.199371,1.79361 -0.505249,3.387878 -0.87912,4.911835c-0.262878,1.585663 -0.48941,2.6875 -0.684448,3.270752c0.176941,0.272552 0.591553,0.662384 1.219208,1.184021c0.790863,0.442474 1.273438,0.779633 1.500122,0.902649c1.69043,0.946686 2.988739,1.025818 3.892853,0.31958c1.017303,-0.644806 1.792328,-1.729156 2.279449,-3.188721c0.648193,-1.541595 1.142059,-3.197418 1.500214,-5.07312c0.407745,-2.022186 0.826996,-3.77478 1.314087,-5.234253l4.276031,2.347473c-0.92453,2.772461 -1.765198,5.386597 -2.431396,7.784027c-0.505402,2.315308 -0.670746,4.501526 -0.577881,6.629242c0.253876,2.045715 0.940277,3.977081 2.116302,5.670959c1.28717,1.758423 3.319733,3.346954 6.027466,4.859161l0.645782,0.413361c0.274323,-0.0177 0.82724,-0.120239 1.652008,-0.181854c0.983459,-0.140594 1.611145,-0.146484 1.837677,-0.020355c0.901825,0.504059 1.218994,1.473969 1.006042,2.913086c-0.213013,1.438934 -0.503052,2.666901 -0.845062,3.689728l-0.308319,1.125397c0.790894,0.439606 1.459259,0.524689 2.057556,0.336975c0.645782,-0.331146 1.142059,-0.703247 1.561218,-1.160522c0.582306,-0.539307 1.210022,-1.014008 1.792297,-1.556122c0.630005,-0.685913 1.318909,-1.160645 2.030273,-1.283691c-0.099579,0.293091 -0.364746,1.037476 -0.754456,2.203857c-0.278656,1.230988 -0.528107,2.07782 -0.673004,2.517548l-1.259918,3.924255c-0.729492,2.18631 -1.805847,4.278961 -3.149628,6.298065c-1.293945,1.872681 -2.868713,2.315338 -4.672363,1.307159c-3.949524,-2.203949 -7.618103,-5.017395 -11.128204,-8.534393c-3.396545,-3.4552 -7.115082,-6.380188 -11.175659,-8.648438c-0.564117,-0.316559 -1.429718,-0.638947 -2.492554,-1.060944c-0.904022,-0.504059 -1.31189,-0.744415 -1.31189,-0.744415c-0.387543,-0.041138 -1.071808,-0.029327 -1.944214,0.175903c-0.759155,0.269562 -1.531799,0.69165 -2.388306,1.251343c-0.809021,0.416229 -1.656433,0.934937 -2.512939,1.494629c-0.695679,0.477783 -1.185028,0.923279 -1.443512,1.298279c-2.413086,-3.598846 -4.638397,-6.749359 -6.68222,-9.448608c-1.993927,-2.845734 -3.553101,-5.644592 -4.772125,-8.405365c-1.221283,-2.757935 -1.955505,-5.667847 -2.141296,-8.715912c-0.138214,-3.19165 0.541534,-6.969299 2.003082,-11.347778c-4.400421,-2.455933 -9.403687,-4.768341 -14.998352,-6.85199c-5.433716,-2.168793 -10.371246,-3.792419 -14.821564,-4.894379c-0.226532,-0.126007 -0.772614,-0.143585 -1.595306,-0.082092c-0.774872,-0.08783 -1.680756,-0.032318 -2.664612,0.11142c-0.936401,-0.00293 -1.847168,-0.020508 -2.782379,-0.023499c-0.774963,-0.084961 -1.247437,-0.199158 -1.472443,-0.325317c-0.113556,-0.061493 -0.39447,-0.354614 -0.796539,-0.753204c-0.241516,-0.48053 -0.575287,-0.890808 -0.977448,-1.289459c-0.354401,-0.542114 -0.693695,-1.028687 -1.095612,-1.427277c-0.354431,-0.542145 -0.578949,-0.841064 -0.691193,-0.902618l-1.585236,-0.841156l-1.311798,-0.741577c-2.164429,0.867615 -4.477875,1.943207 -6.900085,3.185791c-2.374634,1.09903 -4.424164,2.828033 -6.13913,5.16098l-7.18924,11.242279c-0.372375,0.31366 -1.209167,0.861755 -2.5495,1.670624c-1.179779,0.726654 -2.53656,1.588409 -4.03833,2.479309c-1.389954,0.955414 -2.735016,1.846375 -4.075348,2.655182c-1.292542,0.665375 -2.048798,1.192841 -2.307495,1.565125c-0.743835,0.624146 -1.777039,1.673431 -3.086853,3.191559c-1.310669,1.518097 -2.620728,3.088928 -3.866302,4.815094c-1.197815,1.58255 -2.278656,3.130066 -3.314148,4.630554c-0.987335,1.351074 -1.594391,2.274323 -1.739899,2.710907l-11.765045,35.259705c0.589142,3.446503 1.004089,7.259338 1.189026,11.514801c0.345764,4.176208 0.89267,8.279266 1.675079,12.350067c0.781616,4.07077 1.967072,7.921692 3.49295,11.371216c1.686646,3.364502 4.115509,5.899628 7.274689,7.663788c2.932556,1.638275 5.191071,2.78421 6.81958,3.519806c1.676361,0.59201 3.08194,0.975891 4.243927,1.104919c1.209534,-0.017517 2.460846,-0.17868 3.769043,-0.48645c1.355652,-0.454163 3.287842,-0.970184 5.741791,-1.503448c0.112213,0.061462 0.30777,0.225647 0.646759,0.416046c0.386597,0.041107 0.680908,0.096741 0.907074,0.222839c0.902039,0.50412 1.540863,1.18985 1.910583,2.0896c0.41748,0.753143 0.356567,1.960541 -0.291626,3.502136c0.289368,0.334229 0.762115,0.917267 1.51889,1.858063c0.917358,0.858734 1.83728,1.840576 2.706879,2.842865c1.030121,0.923187 1.900299,1.790741 2.657135,2.731567c0.917267,0.858673 1.520477,1.532684 1.810669,1.86673l0.870056,0.398529c1.014801,0.568604 1.953339,0.91153 2.889648,0.914429c1.096802,-0.07901 2.318878,0.173035 3.560242,0.864624c-1.26709,3.795135 -2.645721,7.353149 -4.104156,10.521271c-1.459198,3.165131 -2.812836,6.517975 -4.030151,10.163666l-0.845856,2.646545c-0.033752,0.501282 -0.058746,1.647034 0.018829,3.420105c0.076324,1.776062 0.222839,3.648926 0.364532,5.629944c0.140503,1.984131 0.218628,3.833618 0.296204,5.606445c0.076324,1.773132 0.120026,2.945496 0.08725,3.446594c0.063385,0.20813 -0.053955,1.424377 -0.396973,3.654724c-0.295319,2.086548 -0.678864,4.516235 -1.103973,7.394165c-0.426025,2.877869 -0.869293,5.776367 -1.294342,8.654358c-0.425995,2.87793 -0.764984,5.269531 -0.961884,7.063049l-0.25293,0.861694c-1.315826,3.938904 -3.120911,7.625732 -5.450958,10.999084c-2.282318,3.223755 -4.144196,6.916504 -5.556458,11.148499c-0.487518,1.459473 -0.674622,2.921936 -0.612885,4.340332c0.060974,1.418396 0.174683,2.813599 0.34964,4.296387c0.335449,1.397949 0.627563,2.851746 0.9151,4.399048c0.335266,1.397949 0.522644,2.889771 0.536133,4.454651c-0.074829,4.633545 -0.428162,8.94165 -1.08139,12.904236c-0.605499,3.818604 -1.212006,7.692932 -1.816803,11.50885c-0.605408,3.815857 -1.159332,7.810364 -1.63559,12.045288c-0.428711,4.088318 -0.557465,8.695435 -0.390198,13.80957c0.091766,2.127747 0.285919,3.502075 0.591675,4.190918c0.417297,0.753235 1.141937,1.49176 2.27066,2.121887c4.85022,2.708008 9.541016,3.856873 13.930664,3.540283c4.388702,-0.319397 8.494781,-1.494629 12.420532,-3.631104c3.973358,-2.280151 7.679352,-5.216736 11.156189,-8.812744c3.589752,-3.537476 7.024902,-7.200867 10.27655,-10.925842l2.009857,-1.19574c0.2742,-0.020386 0.913208,0.00592 1.801544,0.155396c1.049042,0.067505 1.57251,0.023376 1.669952,-0.269592c1.438934,-1.101929 2.628448,-2.538086 3.600494,-4.243774c0.972198,-1.708618 1.912506,-3.428833 2.773529,-5.198975c0.906403,-1.916748 1.855957,-3.754272 2.827942,-5.463013c1.083252,-1.644104 2.447266,-3.094727 4.046997,-4.278809c1.017426,-0.641785 2.111908,-1.154724 3.355865,-1.67041c1.404938,-0.600891 2.771332,-1.239746 4.065186,-1.902161c1.404816,-0.600708 2.587769,-1.447815 3.591461,-2.444092c1.114807,-0.934998 1.946472,-2.297791 2.531097,-4.050415l11.173462,-33.47467c1.216858,-3.645813 3.065796,-6.629333 5.490448,-9.085327c2.424408,-2.453003 5.15036,-4.689209 8.204895,-6.620544c3.102234,-2.074951 6.378662,-3.950562 9.770813,-5.691467c3.552948,-1.825867 6.917969,-3.845093 10.067566,-6.066528c3.199646,-2.365112 6.045654,-5.005676 8.619812,-7.898315c2.56958,-2.889709 4.622589,-6.494507 6.084015,-10.870117c0.53476,-1.606079 0.813507,-3.056763 0.818024,-4.26709c0.113251,-1.148926 -0.546082,-2.0896 -1.901123,-2.845703c-1.917023,-1.072754 -3.824921,-1.702942 -5.76004,-1.919617c-1.935089,-0.213989 -3.917755,-0.943787 -5.948273,-2.077942c-0.337433,-0.187622 -1.218994,-0.615479 -2.571716,-1.371643c-1.194244,-0.841064 -2.000793,-1.362671 -2.451752,-1.614807c-0.079346,-0.565613 -0.181274,-1.459473 -0.339905,-2.587952c-0.045288,-1.063782 -0.188141,-2.124695 -0.34671,-3.25c0.002228,-1.210388 -0.047577,-2.456055 -0.206116,-3.58136c-0.158661,-1.128326 -0.262848,-1.828705 -0.276611,-2.186401c-0.065582,-0.208008 -0.24234,-0.735596 -0.611755,-1.635406c-0.321747,-1.043335 -0.716064,-2.262451 -1.098999,-3.513885c-0.385101,-1.254272 -0.731842,-2.359283 -1.051331,-3.402405c-0.31958,-1.046417 -0.50296,-1.72644 -0.518921,-2.080902c-0.589172,-3.443604 -0.614166,-7.045502 -0.169922,-10.779266c0.604858,-3.815826 0.847443,-7.496796 0.695679,-11.045868c-0.065765,-0.208069 -0.231079,-0.785492 -0.439667,-1.767273c-0.208527,-0.97879 -0.419189,-1.987061 -0.625397,-2.968811c-0.160828,-1.128296 -0.382874,-2.165771 -0.591461,-3.147614c-0.206146,-0.98175 -0.299072,-1.650085 -0.312592,-2.0047c0.047424,-0.146484 0.233276,-0.870331 0.512024,-2.098267c0.387421,-1.169434 0.707062,-2.069244 0.949463,-2.798798c0.097443,-0.293152 0.364838,-1.037567 0.754486,-2.203949c0.55072,-1.251465 0.829437,-2.039917 0.926941,-2.332916c-0.072723,3.423187 -0.020538,6.687897 0.16745,9.735901c0.346924,2.962921 0.723022,5.946381 1.07193,8.912384c0.509918,2.880859 1.006134,5.931793 1.53183,9.167236c0.575531,3.09198 1.117004,6.380157 1.658569,9.973267c0.237976,1.691071 0.296936,3.704468 0.068054,5.999237c-0.23114,2.294708 -0.466888,4.648193 -0.582458,7.007294c-0.006683,2.420837 0.260712,4.627625 0.675446,6.591309c0.414612,1.963501 1.438782,3.373291 3.1315,4.319885c1.241669,0.691589 3.20636,1.125427 5.805267,1.362793c2.644379,0.09375 5.531158,0.026306 8.712585,-0.275635c3.176971,-0.301758 6.482971,-0.911438 9.970184,-1.734924c3.485138,-0.820679 6.709534,-1.878601 9.682556,-3.16217c3.083832,-1.21936 5.696472,-2.637756 7.87851,-4.363892c2.295563,-1.658783 3.847839,-3.48761 4.529694,-5.530243c0.339935,-1.022888 0.394379,-2.110138 0.235718,-3.238525c-0.158661,-1.128143 -0.480347,-2.247894 -0.913239,-3.355621c-0.319397,-1.043365 -0.548309,-2.154175 -0.70697,-3.28244c-0.110931,-1.272034 0.081543,-2.584991 0.521118,-3.897888l0.573364,-1.696838l1.606537,5.304504l0.734253,0.351746l0.85202,0.486603l6.403442,1.289459l1.312042,0.744354c3.272064,1.825867 6.183777,4.035583 8.664978,6.632294c2.589996,2.658234 4.608917,6.087128 6.118164,10.389435l-2.028076,1.283569c0.398743,1.608948 0.881439,3.153503 1.443451,4.680298c0.55957,1.524109 1.438843,2.883911 2.533264,4.015137c-0.081543,0.647766 -0.192566,1.743896 -0.339905,3.390869c-0.036285,1.711548 -0.149414,3.469971 -0.233429,5.325195c-0.083771,1.858154 -0.151672,3.654541 -0.298981,5.30481c0.011322,1.564819 0.061127,2.614014 0.142792,3.179565c0.011292,1.565063 -0.049957,4.375549 -0.09082,8.505127c0.070374,4.196838 0.172363,8.513733 0.310455,12.91571c0.246948,4.466431 0.580109,8.493164 1.008362,12.02179c0.428375,3.528564 1.046906,5.512695 1.837799,5.9552c1.692505,0.943665 3.391968,0.720825 5.041626,-0.609497c1.64743,-1.330566 3.133881,-3.182861 4.461761,-5.55658c1.44101,-2.312622 2.734955,-4.724426 3.886078,-7.370911c1.151154,-2.646423 2.071014,-4.812195 2.721405,-6.353882c1.513672,0.674011 3.371796,0.252075 5.61731,-1.263123c2.406342,-1.597168 4.991852,-3.343994 7.772247,-5.251709c2.891235,-1.849365 5.852844,-3.563965 8.920959,-5.137634c3.181519,-1.512268 6.283447,-1.975464 9.331177,-1.483032l1.674438,5.328064c0.208618,0.98175 0.333191,2.599548 0.376221,4.87384c0.043091,2.274231 -0.011292,4.495605 -0.079285,6.708435c0.040771,2.274231 0.008972,4.281677 -0.138245,5.928894c-0.036133,1.711609 -0.020264,2.552612 -0.020264,2.552612c0.176636,0.272522 0.59137,0.662354 1.219116,1.186829c0.627625,0.524719 1.262085,1.061035 2.002991,1.647156c0.741028,0.586304 1.441162,1.148865 2.070984,1.673462c0.627686,0.524658 1.04248,0.911438 1.219177,1.184082c0.015869,0.354431 -0.07251,0.967102 -0.251587,1.904968c-0.178894,0.937805 -0.416931,2.010437 -0.645752,3.094849c-0.115601,1.145813 -0.249084,2.259521 -0.478027,3.343994c-0.179077,0.937683 -0.267395,1.547241 -0.251587,1.901917c0,0 0.138184,0.442627 0.394226,1.277832c0.303589,0.688721 0.442017,1.128357 0.394348,1.274841c0.083801,0.275452 0.122314,0.761902 0.151794,1.380371c29.534302,-38.480408 51.935608,-87.121643 63.650513,-143.209961c11.699158,-56.012024 11.286743,-112.563446 0.790894,-164.980896c-0.315002,0.204895 -0.611816,0.424408 -0.938232,0.621552c-1.180542,0.726196 -2.533142,0.655151 -3.999329,-0.164337c-0.903992,-0.503845 -1.375244,-1.085968 -1.518127,-1.858765c-0.095215,-0.918304 -0.539307,-1.63501 -1.327759,-2.076416c-0.648132,-0.362152 -1.382324,-0.656433 -2.082458,-0.917267l0.002258,-0.003235zm-269.444366,-91.482559l-0.564117,-0.102722l-6.910156,4.985794l4.394989,2.484329c-1.017853,0.6436 -1.745148,1.306244 -2.262329,2.055344c-0.357056,0.666809 -0.767181,1.55983 -1.156433,2.72673c-0.390076,1.167664 -0.336029,2.562119 0.113098,4.023926c0.496948,1.316696 1.129242,2.593796 1.901642,3.889664c0.932556,1.213821 1.886566,2.401703 2.870056,3.469162c1.141998,0.98497 2.057312,1.621826 2.734863,1.999603c0.790894,0.441116 1.758423,0.920502 2.934448,1.404343c1.339142,0.401627 2.628418,0.599426 3.838593,0.582397c1.323242,0.046921 2.483429,-0.315048 3.500793,-0.958649c1.130737,-0.580048 1.98053,-1.568848 2.467682,-3.028046c0.632263,-1.896515 0.854156,-3.619156 0.729614,-5.247421c-0.01355,-1.565002 -0.258362,-3.519531 -0.688843,-5.837463c-1.225891,-0.337982 -2.873169,-1.124512 -5.016876,-2.32164c-1.239441,-0.692932 -2.29306,-1.3004 -3.083954,-1.741531c-0.741028,-0.586761 -1.368561,-1.051254 -1.882965,-1.512222c-0.11322,-0.062729 -0.337524,-0.361481 -0.69104,-0.905518c-0.306,-0.689651 -0.668518,-1.428482 -1.085449,-2.181763c-0.306,-0.689224 -0.650391,-1.323959 -1.003754,-1.868271c-0.19281,-0.626221 -0.260681,-1.04274 -0.324127,-1.251984c-0.002197,0.000214 -0.185791,-0.017029 -0.410187,-0.143311c-0.065643,-0.20874 -0.181274,-0.394547 -0.405548,-0.520752l0,0zm-136.45285,-47.296234c-0.391052,-0.131577 -0.731918,-0.169647 -1.062469,-0.18132c-0.613022,-0.168884 -1.506622,-0.081482 -2.700958,0.289474c-2.077209,5.418594 -4.258224,10.20575 -6.444839,14.350327c-2.187042,4.145203 -4.120392,8.823303 -5.873306,14.075363l-5.060974,-2.811615c-0.341278,1.021652 -0.453201,2.310501 -0.278549,3.792297c0.335632,1.399704 1.06163,1.945999 2.207993,1.720016c-2.212952,1.015335 -4.089584,2.733078 -5.691605,5.12645c-1.441238,2.311798 -2.655258,4.701752 -3.644363,7.264771c-0.097672,0.292145 -0.374802,0.343399 -0.825714,0.09082c-0.902985,-0.503448 -1.230225,-1.504044 -0.968491,-3.0896c0.230286,-1.396866 0.517151,-3.02124 0.82373,-4.645218c-14.784286,26.75145 -26.566345,56.838608 -34.648712,89.686096c1.20816,-0.296204 2.453506,-0.573883 3.668991,-0.710052c1.807083,-0.202271 3.491364,-0.6091 5.171173,-1.229218c-0.000473,0.000427 0.553726,-0.571808 1.605209,-1.715942c1.050888,-1.143829 2.22789,-2.341034 3.489532,-3.713837c1.422638,-1.455292 2.630325,-2.787018 3.681732,-3.931396c1.212326,-1.226868 1.84198,-1.971283 1.939651,-2.263214c1.327881,-2.374207 3.082855,-4.158401 5.231613,-5.382324c2.148117,-1.223526 4.213577,-2.111313 6.118759,-2.605682c1.904556,-0.493744 3.501801,-0.759109 4.873611,-0.858734c1.532898,-0.182007 2.335342,-0.470657 2.433212,-0.762543c0.097,-0.291534 0.086334,-0.98468 -0.072281,-2.112488c-0.110611,-1.273056 -0.138474,-2.070313 -0.15361,-2.425385l0.253052,-0.86026l0.33989,-0.924973c2.391724,-1.952652 5.078934,-2.803635 8.112167,-2.66806c3.081177,-0.009705 5.756836,0.124847 8.031097,0.52919l-1.920776,5.685135l12.480087,-1.806259c-0.207977,-0.981506 -0.580338,-1.943924 -1.11058,-2.759796c-0.482391,-0.961243 -0.953766,-1.813309 -1.37117,-2.566177c-0.418182,-0.75264 -0.72348,-1.498474 -0.979538,-2.334274c-0.25676,-0.835373 -0.190765,-1.893585 0.199188,-3.061157c0.389526,-1.167038 0.834106,-1.85173 1.319061,-2.100739c0.484207,-0.248245 0.927887,-0.270844 1.428146,-0.164978c0.66098,0.023438 1.289124,0.018143 1.838303,-0.022049c0.548309,-0.039581 1.148804,-0.372284 1.731094,-0.91301l0.253174,-0.859985c0.243042,-0.729218 0.428802,-1.451416 0.511307,-2.098114c0.243454,-0.729279 0.428055,-1.258911 0.574463,-1.696732c0.243164,-0.729416 0.573013,-1.130417 0.960724,-1.08754c0.499451,0.106354 1.340332,0.368912 2.566269,0.706741c1.337799,0.401627 2.271088,0.672684 2.77121,0.778839c0.306137,0.084656 0.536774,0.115707 0.633606,0.126358c-0.003891,-0.012924 0.006302,-0.080612 -0.049835,-0.112198l8.378586,0.271057l0.783249,0.463318l0.73349,0.351028c-2.0233,2.85228 -4.436981,5.245728 -7.215668,7.155731c-2.730972,1.764526 -5.259521,3.972382 -7.620392,6.634613l7.087418,3.994308l0.294373,4.561661l8.07608,4.529068c0.243195,-0.729141 0.589767,-1.96524 0.949173,-3.842407c0.358551,-1.876587 0.557663,-3.306992 0.576004,-4.162918c0.048279,-0.145309 -0.093979,-0.736206 -0.301376,-1.718002c-0.208008,-0.981049 -0.454956,-2.003662 -0.726227,-3.194748c-0.1595,-1.127121 -0.295685,-2.22937 -0.503113,-3.211502c-0.207977,-0.981247 -0.282028,-1.548035 -0.23288,-1.69397c0.017746,-0.855423 0.198318,-2.197128 0.557785,-4.07428c0.471207,-1.813461 0.952713,-3.691498 1.473648,-5.651199c0.568787,-2.10553 1.125244,-4.078674 1.597565,-5.892883c0.471268,-1.813522 0.773529,-3.088654 1.017654,-3.818756c0.163528,-1.292984 -0.152084,-2.262558 -1.005463,-2.912903c-0.853928,-0.64978 -1.723892,-1.047043 -2.610611,-1.196503c-0.784882,-2.861282 -1.113953,-6.076096 -0.993179,-9.643906c0.281708,-3.650558 0.529556,-7.259674 0.811951,-10.910858c0.281647,-3.650482 0.299728,-7.161697 0.048721,-10.418396c-0.251541,-3.256027 -1.249771,-6.084122 -3.003067,-8.449051l-1.852463,5.709106l-8.672638,-4.832367l4.19989,-12.383301c-1.353943,-0.755539 -2.568405,-1.788315 -3.613953,-3.065292c-0.997696,-1.421875 -1.998398,-2.848907 -2.995117,-4.27182c-0.949005,-1.567886 -1.949615,-2.994934 -2.995438,-4.271759c-0.997589,-1.422089 -2.13147,-2.476791 -3.372101,-3.170486c-0.451187,-0.251816 -0.870819,-0.498703 -1.261749,-0.630615l-0.000427,0.001022zm259.405548,96.415115c0.788727,0.441467 0.972168,1.313324 0.582428,2.480362c-0.439545,1.313248 -1.015076,1.707932 -1.80365,1.266678c-0.790863,-0.440918 -0.985687,-1.343491 -0.546051,-2.657028c0.389618,-1.167023 0.976563,-1.530716 1.767273,-1.090012l0,0zm114.777435,53.098969c0.176697,0.000488 0.348816,0.080872 0.54834,0.19104c0.788452,0.440979 0.913086,1.320313 0.475769,2.633301c-0.389709,1.167297 -0.978882,1.530975 -1.767395,1.089874c-0.790771,-0.440643 -0.992432,-1.224487 -0.600525,-2.391815c0.328613,-0.98465 0.817993,-1.524231 1.343811,-1.5224zm-22.201843,0.591614c0.086182,0.047272 0.149475,0.136658 0.237854,0.272369c0.464478,0.607239 0.625488,1.032135 0.530334,1.323822c-0.197205,0.58374 -0.616333,0.78363 -1.228149,0.614258c-0.453247,-0.25174 -0.53479,-0.69931 -0.290039,-1.429016c0.219788,-0.656189 0.496216,-0.922913 0.75,-0.781433l0,0zm0.559692,2.946259c0.17218,0.009705 0.348877,0.080963 0.546021,0.191315c0.788574,0.441193 0.990356,1.224609 0.600586,2.391571c-0.439575,1.313232 -1.08313,1.684021 -1.874023,1.242889c-0.788513,-0.440704 -0.933594,-1.231415 -0.493958,-2.544678c0.292236,-0.875427 0.702454,-1.310364 1.221375,-1.281097l0,0zm-115.502472,-38.741211c0.414764,0.080933 0.795441,0.201233 1.162506,0.405792c-0.684235,2.043243 -1.679047,3.642517 -2.954803,4.660461c-1.277985,1.018188 -2.610321,1.940552 -4.11264,2.832336c-1.502319,0.892151 -2.911804,1.910034 -4.235077,3.073822c-1.277954,1.018066 -2.265991,2.498016 -2.898163,4.394531c-0.731812,2.189026 -0.867767,3.962646 -0.369354,5.278442c0.609497,1.379913 1.334595,2.665344 2.107269,3.961609c0.770477,1.296814 1.321075,2.788513 1.722229,4.396881c0.559723,1.525513 0.453217,3.434326 -0.326385,5.768127c-0.14502,0.43808 -0.580017,1.346222 -1.291473,2.678864c-0.600494,1.39624 -0.960846,2.208862 -1.16925,2.437469c0.647919,-1.541565 0.77713,-2.726135 0.360321,-3.47934c-0.371704,-0.898285 -1.008331,-1.58609 -1.910278,-2.090088c-0.226532,-0.126129 -0.589233,-0.202881 -0.976654,-0.246307c-0.226532,-0.125824 -0.348999,-0.192261 -0.459991,-0.255554c-0.308075,0.520813 -0.897247,1.35437 -1.722076,2.623993c-0.713898,1.333374 -1.540863,2.768921 -2.41333,4.184265c-0.713654,1.333405 -1.447876,2.585083 -2.272644,3.85498c-0.663879,1.187103 -1.121704,2.110626 -1.429779,2.631104c-0.679932,0.832428 -1.781097,1.194885 -3.265381,1.231293c-1.484039,0.03653 -3.074799,-0.094696 -4.801422,-0.539307c-1.613464,-0.380951 -3.28125,-0.952118 -4.957947,-1.542755c-1.629272,-0.735809 -2.907349,-1.372467 -3.922272,-1.939819c-1.355072,-0.755859 -2.402008,-1.952118 -3.075043,-3.540894c-0.625305,-1.733826 -1.049042,-3.555542 -1.189636,-5.538757c-0.092865,-2.128632 0.070221,-4.236664 0.367157,-6.322754c0.342163,-2.231567 0.80661,-4.213562 1.391174,-5.964691l1.51828,0.814484c-0.004517,1.210663 -0.08606,2.63446 -0.235657,4.282196c-0.036285,1.71109 0,3.471161 0.079346,5.245026c0.124573,1.628296 0.432678,3.186859 0.994629,4.712067c0.562012,1.525635 1.423157,2.704681 2.664825,3.397552c1.352844,0.7565 2.870911,0.590424 4.420929,-0.447571c1.712952,-1.120667 3.278839,-2.525574 4.74942,-4.127655c1.520416,-1.747253 2.825623,-3.466644 3.958496,-5.25769c1.133118,-1.790375 1.971436,-3.002502 2.440552,-3.606171l0.378418,-1.101624l0.251465,-0.860321l0.484985,-6.186432l0.378326,-1.101624c0.53479,-1.604584 1.658783,-3.726746 3.4216,-6.203735c1.876373,-2.413849 3.926941,-4.614777 6.09314,-6.694061c2.166321,-2.078827 4.404999,-3.719666 6.666473,-4.880676c1.697266,-0.870422 3.129333,-1.180359 4.377716,-0.937469l0,0zm116.975311,42.577576c0.120117,0.013519 0.267456,0.064789 0.410217,0.14325c0.675171,0.378113 0.738647,0.914124 0.269592,1.517273c-0.421509,0.457947 -0.743286,0.546997 -0.967651,0.420837c-0.453064,-0.251617 -0.613953,-0.676788 -0.530212,-1.323792c0.181335,-0.546906 0.453247,-0.797974 0.818054,-0.757568l0,0zm-84.318359,-21.584717c0.1745,0.000458 0.348969,0.080811 0.546143,0.19101c0.788666,0.441406 0.983368,1.34436 0.546051,2.657074c-0.392059,1.167664 -0.978851,1.531281 -1.769775,1.089874c-0.788391,-0.440826 -0.990143,-1.224213 -0.600403,-2.391785c0.328644,-0.984833 0.750122,-1.547974 1.277985,-1.546173l0,0zm-103.896179,-23.01767c-0.908508,-0.290161 -1.744659,-0.411987 -2.485718,-0.393906c-1.37088,0.099625 -2.651184,0.595169 -3.766052,1.529739c-1.003784,0.998566 -1.905609,2.414124 -2.81192,4.330597c-0.747803,1.834045 -1.552124,3.993622 -2.379303,6.473694c-0.584656,1.750946 -0.910858,3.434113 -0.897308,4.999115c0.061157,1.41983 0.836151,2.547699 2.304504,3.366577c-0.877045,2.626434 -1.676788,4.197083 -2.370148,4.674255c-0.582397,0.540619 -1.171509,0.904327 -1.767456,1.089966c-0.437347,0.103119 -0.956207,0.221222 -1.552216,0.406433c-0.484894,0.248779 -0.994781,1.329651 -1.626892,3.226105c-0.244812,0.729767 -0.632263,1.877136 -1.167084,3.481812c-0.376038,1.522339 -0.221985,2.729156 0.582367,3.524353c-0.500732,-0.105682 -1.57251,-0.077942 -3.265167,0.187012c-1.695038,0.265472 -2.768951,1.225037 -3.306183,2.829956c0.226685,0.126007 0.731934,0.44696 1.636169,0.950684c0.951721,0.358093 1.531769,0.583466 1.758331,0.709259c0.450928,0.252319 1.321106,0.649719 2.610352,1.19693c1.289368,0.547211 2.64444,1.088165 4.047089,1.698364c1.563507,0.527222 2.975128,1.061188 4.151123,1.545166c1.339142,0.401398 2.195648,0.768097 2.648865,1.019775c1.321167,0.0466 2.290833,-0.875488 2.925354,-2.772217c0.242554,-0.729431 0.43515,-1.570496 0.566528,-2.363342c0.131439,-0.792389 0.326355,-1.291016 0.537048,-1.519928c0.049835,-0.145874 0.281036,-0.435974 0.700134,-0.893738c0.534729,-0.39444 1.099091,-0.743011 1.631531,-1.137756c0.695618,-0.477386 1.191864,-0.84967 1.563507,-1.161407c0.532532,-0.39444 0.856628,-0.676239 0.906403,-0.822327c-0.002228,0.000214 -0.165375,-1.506714 -0.401001,-4.408691c-0.235779,-2.901276 -0.49173,-6.018616 -0.806702,-9.483887c-0.267426,-3.610962 -0.514465,-7.039917 -0.813538,-10.150635c-0.138245,-3.193024 -0.203918,-5.087891 -0.122406,-5.734741c0.097565,-0.291656 0.496307,-0.745911 1.239624,-1.369232c0.79068,-0.769012 1.339172,-1.221802 1.549805,-1.450745c0.047638,-0.145752 0.206299,-0.533112 0.514374,-1.053955c0.305847,-0.520477 0.52121,-0.914917 0.618561,-1.206879c-1.071777,-0.59848 -2.046173,-1.025909 -2.952576,-1.316193l0,-0.000214zm-145.533524,-47.715302c0.172379,0.009827 0.34938,0.080948 0.546906,0.191238c0.789154,0.441238 0.98996,1.224884 0.600601,2.391647c-0.438721,1.313522 -1.034103,1.796631 -1.823364,1.35524c-0.789978,-0.440506 -0.983978,-1.343826 -0.545364,-2.656952c0.292099,-0.875092 0.703812,-1.310013 1.221222,-1.281174l0,0zm215.592209,82.438507c0.389893,0.131927 0.741028,0.35495 1.191925,0.606659c0.226624,0.126343 0.525818,0.329376 0.815887,0.664337c0.337585,0.189178 0.532288,0.352905 0.645782,0.41571c-1.080933,0.43457 -1.982758,0.641113 -2.755402,0.554688c-0.614288,-0.168762 -1.366394,-0.572906 -2.26828,-1.077301l-1.379913,-0.766937c1.08075,-0.434052 1.955444,-0.625427 2.619232,-0.602661c0.328766,0.011749 0.738953,0.073578 1.130768,0.205505l0,0zm-87.098572,-20.563965c-0.561951,-0.226257 -1.0672,-0.369934 -1.454773,-0.4133c-0.774902,-0.085785 -1.506805,-0.042999 -2.216125,0.079437c-0.598114,0.185791 -1.296082,0.43692 -2.055145,0.705109c-0.711548,0.122772 -1.701691,0.128418 -3.024994,0.081909c-0.097504,0.291809 -0.369446,0.962952 -0.872437,2.066925c-0.389709,1.167572 -0.661652,2.030914 -0.809021,2.468597c-0.047577,0.146301 -0.262787,0.540741 -0.6185,1.206879c-0.194946,0.58371 -0.369415,1.336639 -0.548462,2.274719c-0.131317,0.792786 -0.280914,1.530792 -0.410156,2.32309c0.029602,0.709686 0.355835,1.240417 0.922302,1.555176c3.269775,1.827393 5.585571,2.227722 7.024536,1.126648c1.59967,-1.183411 2.814301,-3.103851 3.691132,-5.73056l2.297699,-6.786896c-0.734192,-0.409149 -1.366364,-0.731201 -1.926056,-0.957733l0,0zm32.453033,78.504364l2.161621,1.231018l4.955597,15.960754c0,0 -0.196991,0.029266 -0.584564,-0.014648c-0.337646,-0.187653 -0.625305,-0.360413 -0.84964,-0.48645c-1.017578,-0.565613 -2.034912,-1.436127 -2.968597,-2.649384c-0.885895,-1.359894 -1.631348,-2.822357 -2.306641,-4.410767c-0.512024,-1.670593 -0.815643,-3.349884 -0.94043,-4.976501c-0.076965,-1.773071 0.092987,-3.340973 0.532654,-4.654022l0,0zm-10.221802,1.172424c0.172333,0.011658 0.348999,0.082031 0.548309,0.19339c0.788666,0.439545 0.988037,1.222015 0.600464,2.391479c-0.439453,1.313019 -1.103455,1.770081 -1.892029,1.330627c-0.790833,-0.439758 -0.915344,-1.31897 -0.477966,-2.634827c0.292206,-0.873322 0.704651,-1.310089 1.221222,-1.28067l0,0zm17.817261,18.654022l1.70166,0.973083l-1.221375,3.74826c-0.788544,-1.652832 -0.969818,-3.261871 -0.480286,-4.721344l0,0zm-3.7276,3.440796c0.111176,0.017548 0.201691,0.041016 0.342224,0.120056c0.564178,0.313568 0.700104,0.756195 0.394226,1.274811c-0.194794,0.583221 -0.536987,0.762054 -0.987946,0.51001c-0.337585,-0.190491 -0.475861,-0.630127 -0.391937,-1.277863c0.061188,-0.483551 0.310394,-0.682831 0.643433,-0.627014l0,0zm-254.624634,-68.283112c-0.438667,1.313171 -0.694473,2.750732 -0.681366,4.315399c0.012466,1.56543 0.708115,2.716034 2.062256,3.471832l1.976135,-5.950256l-3.357254,-1.836975l0.000229,0zm265.750458,95.503601c-0.414673,-0.058594 -0.806641,-0.073212 -1.184875,0.058624c-0.759216,0.269623 -1.373383,1.119537 -1.858307,2.57608l6.303986,3.531616c0.874573,-2.626099 0.181183,-4.516296 -1.962372,-5.712006c-0.450897,-0.252075 -0.883759,-0.395691 -1.298431,-0.454315l0,0zm-260.606705,-86.403748c-0.113098,-0.062653 -0.21756,-0.02533 -0.378662,0.057526c-0.113312,-0.062805 -0.210938,-0.144775 -0.323372,-0.207764l-1.976128,5.950256c0.789261,0.442505 1.532478,0.621216 2.242859,0.498138c0.871429,-0.205139 1.4561,-0.911438 1.797531,-1.931274c0.04834,-0.146637 0.019287,-0.281372 -0.044327,-0.492401c0.096924,-0.290222 0.160126,-0.416229 0.160614,-0.416229c0.114914,-1.148743 -0.176758,-2.132568 -0.868744,-2.86554c-0.000275,0 -0.09816,-0.081787 -0.323196,-0.207855c-0.064514,-0.208923 -0.173935,-0.321472 -0.286392,-0.384857l-0.000183,0zm1.567566,7.948242l-0.574432,1.696777l2.897003,1.579712l0.574448,-1.69693l-2.897018,-1.579559zm-10.104591,-3.247314c-0.330276,2.69632 -0.596687,5.351532 -0.8731,8.04483c0.695305,0.404419 1.391647,0.782471 2.182098,1.140106c-0.887421,-0.149506 -1.49321,0.111328 -1.849304,0.776703c-0.299484,0.559662 -0.510063,1.134033 -0.729607,1.737793c-0.088638,0.946686 -0.217018,1.890442 -0.299034,2.836975c0.490646,0.59201 1.133362,1.254364 2.165504,2.274231c1.255859,1.049194 2.096992,1.781891 2.612717,2.242065l0.715187,0.439545l0.665039,0.325378c0.563522,0.316437 1.808434,0.744354 3.759872,1.315948c2.112106,0.486328 3.494049,0.88504 4.107224,1.054901c0.048279,-0.146423 0.111526,-0.272552 0.160736,-0.418915c0.209763,-0.228668 0.303589,-0.489624 0.352753,-0.635986c0.48674,-1.459534 -0.132263,-3.443665 -1.83699,-5.955231c-1.592499,-2.444244 -3.490959,-5.067322 -5.759605,-7.892548c-1.832008,-2.450134 -3.618698,-4.876801 -5.373306,-7.285797l-0.000183,0zm15.983391,21.807556l-1.222702,3.745514l5.725815,3.138733l1.272583,-3.634003l-5.775696,-3.250244zm311.703461,123.418762c0.614288,0.170013 1.194305,0.395782 1.760651,0.709229c1.577118,0.882172 2.565155,2.546875 2.884613,4.803436c0.478088,2.171814 0.808929,4.454773 1.031006,7.001617c0.219788,2.546753 0.543884,5.140533 1.037842,7.666626c0.543732,2.379944 1.853577,4.235107 3.836212,5.512756c-0.661682,-0.020447 -2.050537,-0.301727 -4.162567,-0.78833c-1.95108,-0.571381 -3.194916,-0.99939 -3.759308,-1.312958l-0.716003,-0.439697l-0.663727,-0.328064c0.233246,-3.505188 0.215149,-7.224365 -0.113342,-11.04303c-0.283386,-3.968231 -1.280334,-7.535004 -2.90271,-10.691376c0.566437,-0.896698 1.155518,-1.260193 1.767334,-1.09021l0,0zm-43.164032,-13.182465c0.790741,0.439606 0.983521,1.342346 0.546082,2.655365c-0.389801,1.16922 -0.979004,1.532776 -1.767456,1.090179c-0.677551,-0.378052 -0.854248,-1.175323 -0.464508,-2.344543c0.437347,-1.312958 1.008423,-1.779053 1.685883,-1.401001zm0.294495,4.560303c0.788605,0.442474 0.983398,1.345306 0.546051,2.658234c-0.389679,1.166351 -0.978821,1.529694 -1.767334,1.09021c-0.790863,-0.442596 -0.992554,-1.225037 -0.600555,-2.391479c0.437439,-1.313019 1.033325,-1.796661 1.821838,-1.356964zm-281.475945,-97.487762c-0.195061,0.583282 -0.761559,1.201599 -1.778992,1.846375c-0.96949,0.49826 -1.777046,0.636047 -2.340721,0.319427c-0.113106,-0.061462 -0.33754,-0.360382 -0.691025,-0.905518c-0.305412,-0.688751 -0.667152,-1.427246 -1.084702,-2.180511c-0.118782,-0.269623 -0.230621,-0.518829 -0.349297,-0.785492c-1.93821,61.902832 10.09304,121.938843 33.160042,173.809845c0.601807,-0.873413 1.25618,-1.705811 1.858261,-2.576233c0.825241,-1.271851 1.495773,-2.397278 2.111481,-3.437683c0.66362,-1.18689 1.115021,-1.989929 1.374237,-2.364929l0.753647,-2.203979l1.16716,-3.48175l1.167236,-3.48172l0.629852,-1.960754c1.732849,-3.188538 3.834976,-5.738281 6.227356,-7.693054c2.44043,-2.098328 4.825272,-4.155792 7.217712,-6.110596c2.55304,-2.036896 4.897003,-4.185089 6.999557,-6.4711c2.150787,-2.435364 3.908356,-5.621063 5.223877,-9.559937c1.071381,-3.209229 1.479034,-5.653381 1.240936,-7.344452c-0.077362,-1.776031 -0.535248,-3.335052 -1.306656,-4.630585c-0.772263,-1.298309 -1.760818,-2.693359 -3.032242,-4.097168c-1.159256,-1.339142 -2.396011,-3.094879 -3.649323,-5.35434c-0.128723,-0.41626 -0.496979,-1.037598 -1.140213,-1.916656c-0.482239,-0.961334 -0.815079,-1.565155 -1.040298,-1.691162c-0.177261,-0.272583 -0.781738,-0.750244 -1.747955,-1.465302c-0.966843,-0.71225 -1.980698,-1.430206 -3.059753,-2.206757c-1.030701,-0.920441 -2.037933,-1.758514 -3.004181,-2.470673c-0.966873,-0.715179 -1.559433,-1.163544 -1.784637,-1.289551c-2.23877,-2.115997 -4.143753,-4.615784 -5.815094,-7.628601c-1.671875,-3.009949 -3.719101,-5.633026 -6.069611,-7.813385c1.284073,-4.648102 1.988419,-8.440582 2.139954,-11.297974c0.263748,-2.796021 0.145935,-5.002747 -0.366409,-6.676117c-0.512985,-1.670654 -1.249863,-2.910278 -2.280197,-3.830444c-0.918198,-0.858704 -2.02829,-1.928467 -3.235382,-3.124146c-1.095123,-1.131317 -2.20018,-2.520508 -3.373917,-4.214325c-1.174713,-1.694122 -2.127823,-4.0914 -2.814575,-7.244934c-1.023285,-4.551392 -2.510056,-8.334961 -4.455597,-11.327271c-1.946213,-2.992279 -4.034714,-5.703217 -6.288071,-8.173798c-2.092316,-2.552551 -4.156815,-5.281189 -6.151062,-8.123962c-1.994965,-2.845734 -3.452644,-6.494385 -4.411156,-10.84079l-0.000244,0zm122.914482,51.006409l-4.11972,2.165833l4.60054,2.555573c0.632874,-1.896118 0.451904,-3.508057 -0.48082,-4.721405l0,0zm253.083344,172.285767c-0.210663,0.228577 -0.584534,0.668152 -1.101135,1.418457c-0.405701,0.811829 -0.865662,1.734924 -1.429871,2.631775c-0.405548,0.811768 -0.822479,1.629517 -1.275665,2.58783c-0.405701,0.814758 -0.700226,1.421509 -0.797638,1.714539l-0.358032,1.014099l-0.271942,0.949463c0.0159,0.354553 0.095215,0.80011 0.28775,1.427307c0.240295,0.480591 0.459991,0.899597 0.63681,1.172241c0,0 0.015747,0.1026 0.081543,0.31073c0.224243,0.125854 0.414551,0.216736 0.527985,0.28125c0.11087,0.061646 0.210754,0.143677 0.323975,0.208069c0.271942,-0.020386 0.378479,-0.058594 0.378479,-0.058594c0.434998,-0.102539 1.207794,-0.448364 2.17746,-0.946594c1.017456,-0.644653 1.685974,-1.028687 2.009949,-1.19574c0,0 -0.011261,-0.029419 0.036194,-0.175842c0.210754,-0.22876 0.371704,-0.466125 0.421631,-0.612549c0.53476,-1.606018 0.487183,-3.396667 -0.040894,-5.421753c-0.527802,-2.025146 -1.044647,-3.77771 -1.606598,-5.304688l0,0zm-107.179474,34.843384c-1.533875,0.181763 -2.911652,0.788452 -4.026672,1.723389c-1.116913,0.934814 -2.254456,2.022034 -3.466797,3.250183c-1.0513,1.143005 -2.245605,2.236145 -3.568817,3.399597c-1.327881,1.163513 -2.925323,2.0896 -4.76535,2.792969c-0.323975,0.166992 -1.017395,0.568604 -2.145844,1.148804c-0.969849,0.49823 -1.651825,0.852844 -1.973633,1.01709c-1.067291,0.791077 -2.159454,2.115845 -3.339966,4.05304c-1.069611,1.998779 -2.15274,4.208557 -3.204071,6.562012c-0.892883,2.271301 -1.785583,4.57489 -2.678436,6.84613c-0.779358,2.332886 -1.420746,4.255371 -1.957794,5.86145l-1.006073,3.062622c-0.682098,2.042725 -1.203217,4.223145 -1.434204,6.517883c-0.117889,2.359192 0.609467,3.985718 2.077759,4.806335c2.141388,1.195801 3.933685,1.641235 5.354553,1.39801c1.533936,-0.184631 2.832336,-0.844055 3.997009,-1.925476c1.212372,-1.227966 2.361115,-2.751953 3.383118,-4.604187c1.130707,-1.790649 2.32251,-3.698547 3.552917,-5.779297c0.355804,-0.668213 1.078766,-2.142395 2.245636,-4.434143c1.327789,-2.373962 2.721344,-4.897339 4.146667,-7.561401c1.538696,-2.60553 2.938965,-5.245972 4.203247,-7.830872c1.375549,-2.520386 2.406586,-4.38147 3.070496,-5.56842c0.047607,-0.146423 0.106537,-0.421875 0.253784,-0.858704c0.305969,-0.521729 0.518921,-0.917236 0.618652,-1.207397c0.582245,-1.749817 0.688812,-3.660522 0.323914,-5.7677c-0.367035,-2.110168 -0.212952,-4.440125 0.339905,-6.901917l0,0z" fill="#4a8e05" id="svg_20"/>
    <path d="m500.415405,125.98732c39.59967,98.885834 -72.376831,-35.822189 -200.31012,98.460709c-88.72113,93.123871 -127.700104,246.679382 -167.297699,147.793762c-39.599747,-98.885742 10.606979,-234.302872 112.067337,-302.27533c101.460159,-67.966485 215.942978,-42.873543 255.531357,56.012138l0.009125,0.00872z" fill="url(#svg_14)" opacity="0.669" stroke-linecap="round" stroke-linejoin="bevel" stroke-width="7.087" id="svg_21"/>
    <path d="m528.127991,210.743927c-1.357422,0.098877 -2.327087,1.01738 -2.902649,2.747711l-0.353577,0.824036c0.124756,0.413361 0.280945,1.068222 0.423767,1.831818c0.190308,0.619827 0.382996,0.945282 0.496216,1.007141l8.284302,0.275238c0,0 0.022644,-0.130325 0.070251,-0.274963c0.208435,-0.2258 0.305908,-0.404984 0.355713,-0.549347c0.480469,-1.441727 0.369446,-2.510254 -0.425964,-3.297104c-0.684265,-0.723862 -1.515869,-1.333252 -2.406433,-1.831757c-0.502991,-0.279907 -1.110291,-0.525543 -1.699402,-0.640976c-0.591431,-0.115845 -1.164673,-0.14064 -1.842224,-0.091797l0,0zm-89.71817,18.500397c-1.019531,-0.061615 -1.98938,-0.002747 -3.045441,0.091675c-4.11496,0.439056 -8.279724,1.527191 -12.603058,3.388214c-4.167175,1.779785 -8.189301,4.148987 -12.039032,6.960434c-3.802338,2.668152 -7.078918,5.326324 -9.843384,8.05954c-0.586853,-1.012314 -1.914703,-1.142715 -3.892761,-0.366364c-1.932983,0.633087 -4.083282,1.708054 -6.304016,3.205933c-2.059753,1.415833 -4.015228,3.02536 -5.94812,4.853607c-1.821747,1.891434 -2.848267,3.387375 -3.185913,4.395981c-1.685913,5.047699 -2.472046,9.660675 -2.336182,14.012695c0.181335,4.208466 2.102753,7.84433 5.877899,10.807159c-2.091553,0.714783 -3.670868,2.154663 -4.885468,4.21286c-1.216858,2.058228 -2.005371,4.38089 -2.266022,7.143585c-3.541656,-0.094849 -6.183716,0.312744 -8.003235,1.007355c-1.771973,0.550964 -3.42392,1.264038 -4.955627,2.289825c-1.373108,0.944 -3.034149,2.015991 -4.885406,3.205292c-1.694855,1.108093 -4.094513,2.215973 -7.36438,3.297119c-1.389038,0.593781 -2.954773,0.850769 -4.531952,0.824432c-1.579315,-0.026093 -3.095184,0.026337 -4.67453,0c-1.579407,-0.026093 -3.181305,0.042145 -4.744934,0.366241c-1.402557,0.242676 -2.703217,0.825623 -3.965393,1.831726c-0.018066,0.845917 0.253754,1.758423 0.779449,2.564484c0.636719,0.868561 1.228149,1.656982 1.912445,2.381134c0.684387,0.724884 1.361877,1.221588 1.982697,1.740295c0.621002,0.518738 1.121643,0.972992 1.345978,1.09906c-0.575531,0.533325 -0.874664,1.28949 -0.779449,2.19809c0.203918,0.970001 0.439545,1.937073 0.706909,3.112335c0.428406,1.0961 0.7229,2.306549 0.992523,3.481842c0.315063,1.031464 0.357971,1.975128 0.070313,2.839691c-0.770447,2.30658 -2.13916,3.434875 -4.035797,3.572571c-1.851257,-0.00885 -3.874786,-0.389709 -6.090698,-1.283691c-2.055267,-0.97583 -4.083374,-2.083618 -6.088654,-3.206146c-1.959381,-1.263092 -3.455444,-1.978241 -4.602844,-2.107178c-0.304535,0.515869 -0.853821,1.523956 -1.557892,2.839905c-0.593414,1.380371 -1.230408,2.661041 -1.982697,4.120667c-0.593353,1.38031 -1.177826,2.924835 -1.770142,4.305145c-0.545319,1.236786 -0.940826,1.98703 -1.133026,2.564301l-0.283234,1.008209c-1.637543,4.903137 -2.083466,8.472687 -1.274628,10.808533c0.807831,2.332825 2.46283,4.152832 5.027771,5.585968l5.735626,3.297058c0.334015,0.187714 1.139862,0.627228 2.477753,1.371643c1.38678,0.60376 2.286316,1.005188 2.619415,1.192749c2.424591,-0.527496 4.423248,-1.623627 5.87793,-3.206055c1.613281,-1.664795 2.968353,-3.370514 4.248688,-5.219696c1.280212,-1.852295 2.490295,-3.724976 3.611816,-5.495209c1.280396,-1.852081 2.846069,-3.220856 4.602234,-4.120667c1.803741,-1.046143 4.019775,-1.427185 6.584808,-1.192749c2.567322,0.237396 5.830261,1.421478 9.843414,3.663391l0.636566,0.366425c-0.319397,0.164093 -0.883545,0.852905 -1.699432,2.107208c-0.815704,1.254303 -1.395721,2.233215 -1.699524,2.749023l-0.283234,0.823395l-0.353394,0.914551c-0.129211,0.782379 -0.24472,1.755402 -0.566528,3.115234c-0.163116,1.277832 -0.362427,2.628845 -0.636658,3.845215c-0.163147,1.27774 -0.31958,2.370972 -0.496277,3.296967c-0.176788,0.929077 -0.305878,1.412659 -0.353485,1.556213c0.0159,0.351868 -0.009064,0.81778 0.070221,1.374542c0.190399,0.621246 0.462311,1.104919 0.639008,1.374603c1.368561,0.251862 2.447235,-0.140717 3.326416,-1.18985c0.990265,-0.987793 1.735718,-2.259644 2.26593,-3.848022c0.688782,-1.667664 1.157898,-3.379211 1.416199,-4.944214c0.369415,-1.506409 0.557434,-2.567352 0.638977,-3.20636c0.21994,1.321899 0.831665,2.754944 1.769775,4.305359c1.049133,1.611938 2.084747,3.250122 2.972961,4.944c1.049042,1.612091 1.812714,3.376343 2.478943,4.947205c0.666138,1.567963 0.786377,2.913147 0.353424,4.211426c-0.480286,1.441956 -1.318787,1.99292 -2.689728,1.740967c-1.259735,-0.190674 -2.388275,-0.134949 -3.185822,0.275452c-0.002319,0 -0.077118,0.231384 -0.283356,0.457153c-0.049835,0.143524 -0.095093,0.222748 -0.142731,0.366272c-0.047485,0.143677 -0.11557,0.445465 -0.213043,0.732788c0.01593,0.351563 0,0.550995 0,0.547974c0.127045,0.4133 0.63913,1.301239 1.416321,2.930725c0.827087,1.488831 1.320953,2.549683 1.559021,3.024567c0.512146,-0.741547 1.450134,-1.78186 2.762115,-2.930756c1.357361,-1.295349 2.762329,-2.233276 4.248749,-3.115448c1.6427,-0.964081 3.097626,-1.617706 4.38913,-1.922485c1.452454,-0.386871 2.449432,-0.164154 2.975098,0.641815c0.523438,0.805969 0.84314,2.001678 0.920074,3.754272c0.124542,1.608917 0.052002,3.355682 -0.140533,5.128845c-0.197144,1.77301 -0.482605,3.349701 -0.849701,4.85321c-0.26059,1.567963 -0.516663,2.628845 -0.709167,3.206268c0.174469,0.269623 0.652466,0.671021 1.275635,1.189758c0.77951,0.436737 1.262146,0.791443 1.48642,0.917328c1.672302,0.932037 2.927734,0.973053 3.822723,0.272614c1.006073,-0.635925 1.785492,-1.67038 2.26593,-3.112427c0.641266,-1.523956 1.132996,-3.18277 1.488831,-5.037811c0.40097,-1.998901 0.860962,-3.686951 1.343658,-5.128845l4.178284,2.288879c-0.915344,2.740234 -1.749329,5.325073 -2.406281,7.693146c-0.500946,2.28894 -0.659546,4.489868 -0.566559,6.594086c0.249268,2.022278 0.890472,3.912781 2.052887,5.586121c1.271332,1.737823 3.342468,3.270569 6.018372,4.76236l0.636841,0.366272c0.271851,-0.0177 0.815704,-0.123077 1.629181,-0.181732c0.972137,-0.140625 1.547607,-0.125977 1.769684,0c0.31723,0.175842 0.536987,0.436676 0.709198,0.732605c6.419464,-7.965637 13.0224,-15.714417 20.040222,-23.079376c76.944855,-80.768158 147.860046,-64.303009 183.755005,-59.804352c-1.318787,-13.166962 -3.256165,-26.179352 -5.8078,-38.923065c-0.310303,0.202301 -0.598083,0.446075 -0.919922,0.641022c-1.166809,0.717926 -2.517456,0.626495 -3.965271,-0.183258c-0.892883,-0.497803 -1.346069,-1.067627 -1.486572,-1.831604c-0.095154,-0.907715 -0.496094,-1.670502 -1.275696,-2.106384c-0.641174,-0.358185 -1.361755,-0.566711 -2.052979,-0.824371c-2.073242,-0.773132 -4.346069,-1.137482 -6.867981,-1.007355c-3.256165,0.235962 -6.464783,0.604034 -9.70282,1.19046c-3.238037,0.587006 -6.356079,1.134613 -9.274597,1.55719c-2.920898,0.42276 -5.197998,0.201233 -6.8703,-0.732788l-0.707031,1.922821c-0.435059,1.298065 -0.614075,2.520203 -0.566467,3.572388c0.203918,0.969971 0.752258,2.045074 1.629211,3.388184l-0.70929,-0.366333c-1.114746,-0.622162 -2.021179,-1.426697 -2.832336,-2.564392c-0.763672,-1.281036 -1.81958,-2.336975 -3.045532,-3.021881c-0.779419,-0.435791 -1.377686,-0.321472 -1.839905,0.274506c-0.305969,0.515076 -0.568726,1.081848 -0.920105,1.740448c-0.353333,0.658783 -0.711426,1.264435 -1.062561,1.923096c-0.306091,0.514923 -0.890625,0.557098 -1.559021,0.183105c-0.111145,-0.061737 -0.201721,-0.058258 -0.423706,-0.183105c-0.176758,-0.268433 -0.262939,-0.496887 -0.213135,-0.641052c-0.063416,-0.206268 -0.081543,-0.642914 0,-1.282043c0.081604,-0.639038 0.20166,-1.284271 0.283264,-1.923553c0.12915,-0.78302 0.108887,-1.428131 0.142761,-1.923126c0.079407,-0.638855 0.108826,-0.945099 0,-1.007629l-0.426025,-0.549377c-0.8927,-0.498016 -1.620056,-0.442657 -2.195679,0.091644c-0.575439,0.534302 -1.332397,0.468964 -2.336182,-0.091644c-0.781738,-0.435577 -1.327759,-0.966614 -1.62915,-1.648499c-0.301392,-0.681549 -0.525757,-1.463654 -0.777344,-2.289551c-0.25592,-0.825897 -0.580017,-1.545776 -0.992371,-2.289825c-0.301331,-0.681458 -0.920105,-1.304108 -1.699524,-1.73996c-1.561218,-0.871552 -2.88678,-0.793579 -4.035706,0.274658c-0.992371,0.986725 -2.052795,2.33606 -3.185974,3.754852c-1.13739,1.41925 -2.279541,2.565674 -3.541626,3.571869c-1.103516,0.924652 -2.576233,0.842896 -4.248657,-0.091431l-14.515564,-7.968292c-0.385254,1.154205 -0.373962,2.309967 0.070129,3.755127c0.555176,1.507477 1.044556,2.707123 1.34613,3.388092c-0.557495,-0.310852 -1.658752,-0.770386 -3.045532,-1.373505c-1.386658,-0.602814 -2.87558,-1.247986 -4.531952,-1.831757c-1.497742,-0.664978 -2.884583,-1.280945 -4.318787,-1.740265c-1.38681,-0.602875 -2.440521,-0.931366 -3.045563,-1.09903c-2.583038,-0.586029 -5.272797,-0.40094 -8.001099,0.641357c-2.569427,0.960693 -5.102844,1.465912 -7.717773,1.373505c1.119415,-1.769287 1.61795,-3.359436 1.556671,-4.76236c0.099731,-1.484406 -0.079224,-2.862793 -0.777191,-3.93811c-0.652557,-1.218781 -1.624695,-2.163757 -2.691895,-2.930603c-1.019775,-0.91098 -1.971466,-1.637451 -2.972931,-2.198181c-1.543121,4.615112 -3.410278,7.850037 -5.454193,9.616089c-1.996185,1.622711 -4.001587,2.557648 -5.948059,2.839294c-1.785675,0.200134 -3.32428,0.199799 -4.742584,0.0914c-1.373291,-0.251617 -2.213867,0.181396 -2.549347,1.190826l-1.062592,3.205627c-2.900513,-1.619019 -4.570618,-3.42395 -5.028198,-5.220245c-0.410065,-1.93988 0.04071,-4.923584 1.486481,-9.249969l12.745941,7.143616c0.77948,0.436188 1.368622,0.162079 1.769745,-0.64093c0.40094,-0.802948 0.749908,-1.568512 0.992432,-2.289673c0.335449,-1.009155 0.46225,-1.794617 0.496155,-2.289551c0.079376,-0.639008 -0.144867,-1.329468 -0.779327,-2.198029l-15.648743,-23.812164c-0.759064,-3.673782 -1.91922,-6.36554 -3.398926,-7.876419c-1.368561,-1.448273 -3.213165,-2.842728 -5.664886,-4.212799c-2.676025,-1.494431 -5.653503,-2.288727 -8.710236,-2.473007l-0.00238,-0.000214zm14.375305,12.638779c0.169952,0.009216 0.371613,0.07428 0.566406,0.18309c0.779541,0.436066 0.949432,1.410843 0.566559,2.564407c-0.43512,1.29834 -0.990234,1.53511 -1.769806,1.099014c-0.781738,-0.435471 -1.001434,-1.266052 -0.566345,-2.564529c0.287659,-0.864777 0.69104,-1.310791 1.203186,-1.281982zm74.209808,2.106567c-2.111816,0.066116 -4.16925,0.388351 -6.161133,1.007233c-7.037964,2.058609 -14.085022,6.834488 -21.102783,14.379044l-0.283142,0.823822c-0.287872,0.865753 -0.26062,2.006073 0.07254,3.388824c0.489288,1.301178 1.126129,2.695587 1.839935,4.121155c0.713684,1.425751 1.524994,2.617706 2.336151,3.754669c0.969879,1.055786 1.737946,1.824524 2.408661,2.197937l0.636658,0.458038c0.382904,0.042786 1.026581,-0.032562 1.842346,-0.091675c0.971954,-0.140778 1.515869,-0.153564 1.626831,-0.091431c0,0.000183 0.022705,-0.039032 0.072571,-0.183197c0.206146,-0.225922 0.256012,-0.535736 0.353485,-0.824493c0.335358,-1.009155 0.462311,-2.221466 0.353546,-3.480164c-0.108826,-1.258423 -0.235687,-2.554993 -0.566528,-3.938385c-0.219696,-1.320557 -0.387543,-2.587738 -0.496246,-3.846527c-0.061188,-1.402344 0.063446,-2.731781 0.496246,-4.029755l0.919952,-2.83931c1.19632,-0.016129 3.503143,-0.1008 6.870453,-0.27449c3.475891,-0.111526 7.006409,-0.303421 10.690674,-0.641281c3.732056,-0.481506 7.180847,-1.028839 10.196838,-1.73999c3.063599,-0.855362 4.805969,-1.998978 5.241089,-3.297119c-2.145935,-1.198639 -4.250916,-2.261017 -6.301575,-3.022324c-3.849854,-1.427444 -7.529724,-1.941895 -11.04657,-1.831879l0,0.001297zm67.978577,8.059464c-0.405579,0.030853 -0.73407,0.161728 -1.132935,0.366302c-0.688782,0.472092 -1.289246,1.305893 -1.769653,2.74762c-0.097534,0.288651 -0.328613,0.836136 -0.566589,1.556824c-0.083679,0.639496 -0.117798,1.177216 -0.213013,1.465332c0.507629,0.456024 1.400391,1.03241 2.689636,1.923401c1.289429,0.891785 2.612671,1.833221 3.965515,2.930725c1.513611,1.016479 2.88678,2.03952 4.178528,2.930756c0.348816,0.241089 0.482544,0.259125 0.779419,0.457764c-1.128479,-4.331879 -2.413208,-8.65329 -3.682251,-12.913071c-0.08606,-0.048096 -0.197205,-0.135086 -0.283142,-0.183182c-0.423889,-0.320877 -0.817993,-0.519867 -1.275818,-0.732651c-0.457703,-0.213074 -0.992554,-0.261383 -1.486511,-0.366302c-0.414673,-0.146072 -0.799805,-0.214371 -1.203186,-0.183304l0,-0.000214zm-236.587952,5.312042c-1.357269,0.098328 -2.651245,0.632935 -3.752441,1.556671c-0.992554,0.986877 -1.867188,2.319153 -2.762207,4.212952c-0.738708,1.812927 -1.590759,3.959961 -2.40863,6.41098c-0.577881,1.730804 -0.863373,3.490814 -0.849823,5.037659c0.061127,1.402771 0.815735,2.395782 2.266022,3.205261c-0.865631,2.596405 -1.649597,4.199188 -2.336273,4.671143c-0.5755,0.534363 -1.110321,0.91571 -1.699493,1.099182c-0.430511,0.10141 -0.967468,0.274536 -1.556671,0.457794c-0.480347,0.246185 -1.003723,1.23941 -1.629181,3.1138c-0.242432,0.721313 -0.675232,1.894257 -1.203308,3.480347c-0.371521,1.504639 -0.160706,2.693909 0.63681,3.480316c-0.494049,-0.104675 -1.583862,-0.079041 -3.258514,0.183075c-1.6745,0.26236 -2.728149,1.161499 -3.256104,2.747528c0.222076,0.124908 0.73642,0.509613 1.629211,1.007629c0.93808,0.353912 1.545319,0.608124 1.769623,0.732697c0.444275,0.249146 1.273529,0.558289 2.549255,1.098907c1.273529,0.541077 2.648956,1.045776 4.035614,1.648529c1.545471,0.521179 2.873352,1.078552 4.035767,1.556915c1.323334,0.39679 2.245575,0.75882 2.691956,1.007629c1.307495,0.045898 2.204773,-0.872894 2.832458,-2.74762c0.240143,-0.721008 0.434967,-1.506409 0.566467,-2.289764c0.12912,-0.782898 0.358032,-1.239197 0.566467,-1.465393c0.047668,-0.144165 0.292328,-0.463379 0.70697,-0.915894c0.527954,-0.389801 1.101257,-0.800262 1.629303,-1.190338c0.686432,-0.471954 1.119293,-0.791107 1.48642,-1.09906c0.527924,-0.390076 0.802032,-0.680023 0.84967,-0.824402c0,0.000214 -0.120117,-1.436523 -0.353577,-4.30481c-0.233276,-2.867584 -0.539124,-6.007996 -0.849579,-9.433319c-0.265198,-3.569061 -0.482635,-6.999725 -0.779602,-10.07431c-0.135925,-3.156158 -0.221893,-4.947388 -0.14032,-5.586578c0.095062,-0.288361 0.539154,-0.757385 1.273407,-1.373993c0.783966,-0.759918 1.350494,-1.238831 1.558929,-1.465363c0.047638,-0.143616 0.19043,-0.492462 0.496307,-1.007324c0.301361,-0.514069 0.539246,-0.902008 0.636627,-1.190643c-1.060486,-0.591461 -2.077881,-0.995331 -2.975128,-1.282318c-0.895081,-0.286621 -1.674622,-0.475555 -2.406433,-0.457703l0,-0.000183zm71.873749,2.381195c0.333099,-0.00824 0.682068,0.031525 0.990112,0.09137c0.412354,0.079987 0.700226,0.164032 1.062714,0.366241c-0.675171,2.019562 -1.570282,3.573456 -2.832428,4.579376c-1.262054,1.006592 -2.551422,1.957947 -4.035492,2.839294c-1.48645,0.881744 -2.938995,1.87207 -4.24881,3.022064c-1.262054,1.00647 -2.207062,2.521667 -2.832367,4.396118c-0.7229,2.163483 -0.847412,3.82782 -0.353577,5.128784c0.600555,1.363678 1.289368,2.656921 2.05304,3.938324c0.761322,1.28183 1.302887,2.806793 1.699402,4.396118c0.552917,1.507751 0.414795,3.371185 -0.353424,5.678253c-0.145111,0.432861 -0.570953,1.338806 -1.275757,2.655853c-0.593689,1.380432 -0.926758,2.155548 -1.132996,2.381317c0.641418,-1.523773 0.765839,-2.73587 0.353485,-3.480438c-0.364868,-0.88797 -1.019745,-1.516327 -1.910278,-2.01474c-0.224243,-0.124237 -0.539154,-0.231842 -0.92218,-0.274658c-0.222076,-0.124146 -0.382843,-0.212219 -0.493988,-0.274811c-0.305908,0.514801 -0.885925,1.400909 -1.699402,2.656097c-0.707031,1.317566 -1.475189,2.630493 -2.338562,4.029694c-0.704681,1.317932 -1.450195,2.683044 -2.265869,3.938293c-0.657166,1.173462 -1.182892,2.049957 -1.486389,2.564423c-0.670776,0.822571 -1.720001,1.154633 -3.186005,1.190643c-1.468323,0.036591 -2.968445,-0.018677 -4.674683,-0.458008c-1.592926,-0.376526 -3.229034,-0.973267 -4.885437,-1.556824c-1.608765,-0.727356 -2.961639,-1.362793 -3.96524,-1.923401c-1.337006,-0.74707 -2.306763,-2.001648 -2.972992,-3.57193c-0.618744,-1.713989 -1.064941,-3.443329 -1.205536,-5.403687c-0.090668,-2.104065 0.063538,-4.166046 0.355743,-6.227814c0.337646,-2.205383 0.836121,-4.22229 1.416199,-5.952881l1.416229,0.823975c-0.004456,1.196716 -0.065674,2.584381 -0.212982,4.213074c-0.036194,1.691589 -0.006866,3.37558 0.070129,5.128784c0.124725,1.609528 0.437408,3.255066 0.992645,4.76236c0.552826,1.507904 1.463806,2.612488 2.689667,3.297028c1.336945,0.747772 2.787079,0.568298 4.318878,-0.457764c1.692627,-1.107788 3.21994,-2.446442 4.674744,-4.029694c1.502319,-1.727081 2.843628,-3.359009 3.965302,-5.128906c1.119385,-1.76947 1.944122,-3.066589 2.406494,-3.663269l0.355743,-1.098999l0.210815,-0.824432l0.496124,-6.136108l0.426056,-1.098999c0.528015,-1.586426 1.583801,-3.687714 3.328613,-6.136627c1.853638,-2.38559 3.877136,-4.538605 6.018433,-6.594147c2.139069,-2.054749 4.348328,-3.614807 6.584869,-4.762482c1.257629,-0.644958 2.401855,-0.982086 3.398956,-1.007355l0,0.000488zm-88.798218,11.539612c-0.364655,0.014984 -0.781738,0.122589 -1.132874,0.183105c-0.591461,0.183807 -1.305206,0.376068 -2.05307,0.640991c-0.702393,0.121643 -1.597443,0.138123 -2.904907,0.091888c-0.095123,0.288574 -0.423767,1.015106 -0.919983,2.106232c-0.385223,1.154114 -0.634491,1.948883 -0.779449,2.381195c-0.047638,0.144501 -0.285461,0.532288 -0.63681,1.190826c-0.192535,0.576965 -0.389679,1.362091 -0.566376,2.289398c-0.129181,0.783569 -0.224304,1.506744 -0.353577,2.289825c0.029419,0.701538 0.362549,1.24585 0.919952,1.556763c3.233582,1.806244 5.51767,2.095795 6.940582,1.00769c1.579437,-1.169708 2.744171,-2.990875 3.60968,-5.586731l2.266113,-6.685455c-0.725189,-0.404633 -1.357361,-0.783569 -1.910278,-1.007568c-0.555145,-0.223724 -1.035461,-0.323608 -1.41626,-0.366364c-0.382843,-0.042206 -0.697876,-0.106445 -1.062744,-0.091522l0,-0.000275zm122.008057,9.250061c0.172058,0.000549 0.371643,0.074158 0.566345,0.183105c0.77948,0.436096 0.999237,1.358398 0.566467,2.656189c-0.385071,1.153351 -0.990082,1.443329 -1.769745,1.007233c-0.781738,-0.435486 -1.024048,-1.135651 -0.638977,-2.289551c0.324158,-0.973297 0.754608,-1.558746 1.275909,-1.556976zm-34.555939,11.356445c0.326294,0.011902 0.745605,0.053101 1.133026,0.183228c0.385162,0.130157 0.756805,0.300781 1.203186,0.549561c0.222198,0.124756 0.562073,0.401825 0.849731,0.732635c0.33313,0.187256 0.455505,0.30426 0.566559,0.366394c-1.069672,0.429474 -1.925995,0.634735 -2.689728,0.549438c-0.607178,-0.167023 -1.375458,-0.508972 -2.26593,-1.007263l-1.416229,-0.824463c1.06723,-0.428955 1.964661,-0.572144 2.619385,-0.54953l0,0zm137.869568,2.655823c0.172302,0.000641 0.299133,0.074493 0.496277,0.183319c0.779541,0.436035 0.92688,1.358337 0.493896,2.655792c-0.385132,1.154053 -0.990173,1.535309 -1.769531,1.098999c-0.781738,-0.435547 -0.951843,-1.227234 -0.566589,-2.381348c0.324036,-0.97287 0.82489,-1.558594 1.345947,-1.556763zm-22.163208,0.549622c0.063477,-0.01532 0.149536,0.056549 0.210693,0.0914c0.083801,0.046844 0.197083,0.140625 0.283203,0.274902c0.462341,0.600098 0.59137,0.99408 0.496399,1.282166c-0.192627,0.577057 -0.598328,0.808319 -1.203186,0.641022c-0.446472,-0.24881 -0.525818,-0.744141 -0.283325,-1.465454c0.160828,-0.486542 0.301392,-0.778534 0.496216,-0.824036zm0.423706,3.022125c0.113342,-0.049866 0.226685,-0.00708 0.353455,0c0.172241,0.009613 0.371704,0.074219 0.566467,0.183197c0.77948,0.435974 0.951904,1.1362 0.566528,2.289673c-0.432739,1.298065 -1.060364,1.717957 -1.839905,1.282349c-0.78186,-0.435913 -0.929077,-1.175079 -0.496216,-2.473022c0.217529,-0.648895 0.509827,-1.132477 0.84967,-1.282196zm1.769653,3.754944c0.120178,0.013397 0.285461,0.013641 0.426086,0.091736c0.668396,0.37384 0.675232,0.960693 0.213013,1.556793c-0.416931,0.452393 -0.700256,0.491089 -0.922302,0.366241c-0.44635,-0.248871 -0.57782,-0.642975 -0.493896,-1.282196c0.179016,-0.540588 0.419128,-0.772644 0.7771,-0.732574zm-170.725739,47.443665l2.055206,1.280762l4.955688,15.752686c0,0 -0.183655,0.043823 -0.566528,0c-0.335297,-0.187683 -0.627777,-0.334198 -0.849731,-0.457275c-1.003784,-0.559845 -2.052979,-1.456543 -2.973053,-2.655273c-0.876801,-1.345062 -1.601959,-2.734406 -2.265869,-4.305145c-0.507538,-1.652832 -0.797607,-3.338135 -0.922241,-4.947052c-0.076965,-1.752594 0.133575,-3.37323 0.566528,-4.671661l0,0.00296zm-10.196808,1.189911c0.172119,0.008881 0.371643,0.073242 0.566437,0.181671c0.77948,0.436646 0.951813,1.318817 0.566498,2.473572c-0.4328,1.298279 -0.990204,1.626495 -1.769653,1.189911c-0.78183,-0.433899 -0.929077,-1.266052 -0.496368,-2.564514c0.290161,-0.864471 0.62326,-1.309967 1.133087,-1.28064zm-49.637238,9.158569c-2.139404,0.858704 -4.403687,1.793549 -6.797821,3.021545c-2.347168,1.08432 -4.395233,2.916077 -6.089935,5.219635l-7.080963,11.081024c-0.367828,0.31073 -1.224304,0.849945 -2.549225,1.650024c-1.165955,0.718018 -2.480957,1.5914 -3.965424,2.47348c-1.373779,0.943665 -2.711456,1.764252 -4.036072,2.564484c-1.277557,0.653473 -2.010529,1.186859 -2.265991,1.556122c-0.735291,0.615417 -1.750458,1.705719 -3.044952,3.206268c-1.295441,1.500549 -2.663391,2.963043 -3.894775,4.66861c-1.183716,1.564972 -2.162994,3.19162 -3.18634,4.6716c-0.975922,1.339294 -1.626251,2.224487 -1.770416,2.658173l-11.612976,34.893219c0.582611,3.402588 1.021088,7.054352 1.203857,11.262756c0.341736,4.126404 0.855469,8.250061 1.628601,12.273956c0.772461,4.023895 1.961517,7.763519 3.469727,11.171844c1.66687,3.326447 4.029449,5.858551 7.151672,7.602417c2.898376,1.620728 5.18869,2.751892 6.797821,3.48175c1.65686,0.58313 3.02951,0.96994 4.178223,1.098969c1.195496,-0.017548 2.389252,-0.155396 3.682159,-0.460236c1.340118,-0.448364 3.239197,-0.937683 5.664886,-1.465271c0.110962,0.064514 0.302216,0.18161 0.637207,0.366333c0.382294,0.043945 0.69696,0.152283 0.920654,0.275482c0.891418,0.498169 1.546295,1.219177 1.911835,2.107147c0.412567,0.744446 0.357269,1.864075 -0.283325,3.388031c0.285919,0.331055 0.738922,0.902618 1.487183,1.831696c0.906616,0.849884 1.760345,1.846252 2.619995,2.839874c1.018188,0.911346 1.942657,1.726166 2.690765,2.655212c0.906769,0.849884 1.554138,1.500397 1.841034,1.831573l0.779297,0.457367c1.002899,0.562653 1.977631,0.914398 2.902924,0.917267c1.083923,-0.079071 2.242767,0.137726 3.469849,0.823578c-1.252441,3.748383 -2.595001,7.218323 -4.036377,10.348297c-1.442352,3.130127 -2.762085,6.47113 -3.965485,10.075928l-0.84967,2.655151c-0.033325,0.4953 -0.076324,1.544556 0,3.29718c0.075684,1.752563 0.284973,3.719116 0.424896,5.676758c0.138794,1.960754 0.206879,3.742493 0.283295,5.495178c0.075562,1.755371 0.10321,2.89563 0.07077,3.390747c0.062836,0.205017 -0.085754,1.365723 -0.424744,3.569702c-0.291931,2.06311 -0.642242,4.484009 -1.062378,7.326721c-0.42099,2.845825 -0.925171,5.764771 -1.345245,8.610657c-0.155396,1.049011 -0.232025,1.65271 -0.354248,2.564331c24.708069,-16.30365 54.192505,-80.606842 97.222931,-138.386078c-1.257568,-1.040466 -2.476593,-2.089661 -3.682129,-3.297028c-3.358154,-3.414276 -7.033539,-6.368469 -11.046539,-8.610535c-0.557404,-0.310638 -1.42746,-0.589111 -2.478943,-1.00528c-0.892731,-0.498138 -1.275696,-0.823486 -1.273529,-0.826447c-0.382874,-0.040955 -1.121582,-0.017517 -1.982544,0.184631c-0.75235,0.266663 -1.420685,0.726807 -2.265991,1.280731c-0.799866,0.4104 -1.704041,0.911377 -2.549255,1.465485c-0.688873,0.474701 -1.162384,0.914307 -1.416199,1.2836c-2.386078,-3.555023 -4.565796,-6.673401 -6.584869,-9.343292c-1.973663,-2.810577 -3.539337,-5.515533 -4.744843,-8.241119c-1.207825,-2.725586 -1.869385,-5.688477 -2.05304,-8.701294c-0.138153,-3.156433 0.466919,-6.846161 1.910278,-11.171997c-4.34845,-2.429474 -9.269958,-4.715576 -14.798981,-6.778778c-5.370361,-2.142303 -10.260223,-3.76593 -14.658478,-4.85321c-0.221985,-0.123047 -0.745453,-0.149475 -1.556519,-0.090881c-0.766052,-0.084991 -1.647522,0.041016 -2.619629,0.181671c-0.926666,-0.002899 -1.909027,-0.08783 -2.833466,-0.09079c-0.765686,-0.084961 -1.122864,-0.149475 -1.345306,-0.275574c-0.112244,-0.061493 -0.452332,-0.339905 -0.849854,-0.732574c-0.23877,-0.474792 -0.523163,-0.979004 -0.920532,-1.374634c-0.350067,-0.536255 -0.735565,-0.97879 -1.133087,-1.37146c-0.350067,-0.539307 -0.597015,-0.762054 -0.708008,-0.826508l-1.486938,-0.823456l-1.345551,-0.73288l0.000732,0.003113zm67.341064,9.340149l1.629333,0.917328l-1.203339,3.754242c-0.779388,-1.632416 -0.906342,-3.229645 -0.425995,-4.67157l0,0zm-3.752319,3.387909c0.108734,0.020508 0.215179,0.014709 0.353333,0.093811c0.557434,0.310699 0.729767,0.767792 0.426056,1.28067c-0.192627,0.577393 -0.546082,0.70932 -0.992432,0.457275c-0.335449,-0.184631 -0.505371,-0.641907 -0.423767,-1.28067c0.05896,-0.480743 0.308258,-0.603821 0.63681,-0.551086zm10.40979,26.836639c-0.194885,0.00592 -0.378479,0.023438 -0.566528,0.09082c-0.75,0.266846 -1.359619,1.12262 -1.842285,2.564453l6.231415,3.47879c0.867859,-2.593719 0.135956,-4.401978 -1.982727,-5.585968c-0.44632,-0.249146 -0.863312,-0.39856 -1.273499,-0.457275c-0.206146,-0.029175 -0.371613,-0.096588 -0.566376,-0.09082l0,0z" fill="url(#svg_15)" opacity="0.7" id="svg_22"/>
   </g>
   <path d="m249.399826,391.416779c-123.950996,-116.737213 -121.356796,-204.529388 -103.168045,-245.569458c12.049774,-27.188904 34.910141,-31.822456 42.212265,-39.430237c-93.581123,-58.54084 -145.867722,-34.096481 -164.597439,8.164581c-23.876591,53.873535 12.213474,174.361694 191.531429,330.180206m166.451889,124.964142c189.405548,121.875122 283.460297,105.772522 307.138153,52.349243c18.167908,-40.995056 -2.738708,-107.112122 -66.429382,-186.796631c-1.513062,28.695129 -2.794373,67.238281 -14.204163,92.981812c-16.328369,36.843201 -65.539246,56.237549 -176.788879,-4.53656" fill="#000080" id="svg_2"/>
   <g transform="matrix(2.6718, 0.0498501, -0.0382665, 3.48057, -241.585, -445.844)" fill="#000080" fill-rule="evenodd" stroke="#d40000" stroke-width="3.0587" id="svg_4">
    <path d="m252.130005,222.199997c5.734802,-7.398804 16.557007,-15.272003 20.779999,-23.190994c3.346497,-6.275497 4.9711,-15.222 3.568298,-21.990997c-1.339996,-6.466003 -3.085205,-15.841003 -11.79599,-17.713013c-9.949799,-2.138489 -15.274002,9.94931 -17.083008,13.479004c-4.244293,8.278198 -6.730591,17.570999 -11.17099,25.723007c-1.88591,3.462494 -5.630112,10.228989 -8.329208,13.164001" id="svg_5"/>
    <path d="m232.029999,213.139999c-1.653503,-0.586929 -3.269394,-1.189606 -4.863403,-1.780502c-6.248291,-2.316193 -12.159988,-4.451599 -18.679001,-4.748001c-2.1241,-0.096573 -6.649689,3.253204 -7.376602,5.122711c-0.951569,2.447296 -0.363297,7.743195 -2.009888,9.604797c-2.776001,3.138596 -8.909103,1.857895 -11.258011,5.395798c-2.430695,3.661392 1.397614,11.18399 -0.70285,15.459c-2.280899,4.643295 -10.362,6.647598 -12.440994,11.298004c-1.935501,4.328384 1.379196,10.737991 0.396713,15.637985c-0.595306,2.969116 -5.567993,5.272522 -5.130188,7.970001c0.803696,4.952118 4.630402,11.251007 8.854599,14.979004c7.160904,6.319916 16.334,12.529999 25.300995,15.165009c5.898102,1.733185 14.481003,0.569366 19.292999,-2.060608c2.617996,-1.430786 4.354309,-7.594391 2.996597,-10.122009c-2.051392,-3.818787 -8.957901,-5.751282 -13.223999,-8.916779c-5.336395,-3.9599 -17.287994,-13.688019 -15.582993,-12.459015c3.279297,2.363495 20.791992,20.541992 30.535995,23.237c4.079895,1.128296 9.338608,-7.225189 10.938004,-11.766998c1.332199,-3.784607 0.839844,-10.290985 -2.144409,-13.212982c-8.896088,-8.710815 -33.447998,-21.753006 -33.497009,-21.68602s23.862,13.384995 33.205017,22.090012c3.270004,3.0466 1.809799,12.673981 4.634796,13.165985c3.540497,0.616364 11.262009,-5.57309 14.462006,-9.8414c2.080292,-2.774475 1.5802,-7.556976 1.380005,-11.286987c-0.211212,-3.935516 -0.014587,-9.0159 -2.614105,-11.709c-5.837708,-6.048599 -14.921005,-10.082001 -22.697998,-14.516998c-3.103897,-1.769897 -6.928009,-2.256805 -9.943405,-4.096207c-2.5298,-1.543198 -4.461304,-4.034195 -6.692001,-6.0513c0,0 4.492905,5.694504 6.804901,6.746704s14.858994,5.796494 14.858994,5.796494c5.658005,4.077911 12.651001,7.193405 16.974014,12.234009c2.57309,3.000198 1.873291,11.12999 3.713684,11.887985c1.474121,0.607269 5.311798,-4.729492 6.229706,-7.791595c1.705994,-5.690689 1.779907,-12.360001 1.642212,-18.466995c-0.073425,-3.256897 -0.207062,-7.439606 -2.275513,-9.623001c-1.244995,-1.314194 -5.825195,-3.950195 -11.287994,-6.742096c-6.813095,-3.481796 -14.999008,-7.205902 -19.802002,-8.910599l0.001129,-0.001404z" id="svg_6"/>
   </g>
  </g>
 </g>
</svg>